{"glyphs":{"0":{"ha":477,"x_min":43,"x_max":434,"o":"m 260 130 l 260 434 l 217 434 l 217 130 l 260 130 m 130 0 l 87 43 l 43 87 l 43 477 l 87 521 l 130 564 l 347 564 l 391 521 l 434 477 l 434 87 l 391 43 l 347 0 l 130 0 z "},"1":{"ha":434,"x_min":43,"x_max":391,"o":"m 43 0 l 43 130 l 130 130 l 130 391 l 43 391 l 43 477 l 87 521 l 130 564 l 304 564 l 304 130 l 391 130 l 391 0 l 43 0 z "},"2":{"ha":521,"x_min":43,"x_max":477,"o":"m 43 0 l 43 260 l 87 304 l 130 347 l 304 347 l 304 434 l 217 434 l 217 391 l 43 391 l 43 477 l 87 521 l 130 564 l 391 564 l 434 521 l 477 477 l 477 304 l 434 260 l 391 217 l 217 217 l 217 130 l 304 130 l 304 174 l 477 174 l 477 0 l 43 0 z "},"3":{"ha":521,"x_min":43,"x_max":477,"o":"m 130 0 l 87 43 l 43 87 l 43 174 l 217 174 l 217 130 l 304 130 l 304 217 l 217 217 l 217 347 l 304 347 l 304 434 l 217 434 l 217 391 l 43 391 l 43 477 l 87 521 l 130 564 l 391 564 l 434 521 l 477 477 l 477 347 l 434 304 l 477 260 l 477 87 l 434 43 l 391 0 l 130 0 z "},"4":{"ha":543,"x_min":43,"x_max":499,"o":"m 304 260 l 304 391 l 260 347 l 217 304 l 217 260 l 304 260 m 304 0 l 304 130 l 43 130 l 43 347 l 87 391 l 130 434 l 174 477 l 217 521 l 260 564 l 477 564 l 477 260 l 499 260 l 499 130 l 477 130 l 477 0 l 304 0 z "},"5":{"ha":521,"x_min":43,"x_max":477,"o":"m 130 0 l 87 43 l 43 87 l 43 174 l 217 174 l 217 130 l 304 130 l 304 217 l 130 217 l 87 260 l 43 304 l 43 564 l 477 564 l 477 391 l 304 391 l 304 434 l 217 434 l 217 347 l 391 347 l 434 304 l 477 260 l 477 87 l 434 43 l 391 0 l 130 0 z "},"6":{"ha":521,"x_min":43,"x_max":477,"o":"m 304 130 l 304 217 l 217 217 l 217 130 l 304 130 m 130 0 l 87 43 l 43 87 l 43 477 l 87 521 l 130 564 l 391 564 l 434 521 l 477 477 l 477 391 l 304 391 l 304 434 l 217 434 l 217 347 l 391 347 l 434 304 l 477 260 l 477 87 l 434 43 l 391 0 l 130 0 z "},"7":{"ha":521,"x_min":43,"x_max":477,"o":"m 174 0 l 174 260 l 217 304 l 260 347 l 304 347 l 304 434 l 217 434 l 217 391 l 43 391 l 43 564 l 477 564 l 477 304 l 434 260 l 391 217 l 347 217 l 347 0 l 174 0 z "},"8":{"ha":521,"x_min":43,"x_max":477,"o":"m 304 130 l 304 217 l 217 217 l 217 130 l 304 130 m 304 347 l 304 434 l 217 434 l 217 347 l 304 347 m 130 0 l 87 43 l 43 87 l 43 260 l 87 304 l 43 347 l 43 477 l 87 521 l 130 564 l 391 564 l 434 521 l 477 477 l 477 347 l 434 304 l 477 260 l 477 87 l 434 43 l 391 0 l 130 0 z "},"9":{"ha":521,"x_min":43,"x_max":477,"o":"m 304 347 l 304 434 l 217 434 l 217 347 l 304 347 m 130 0 l 87 43 l 43 87 l 43 174 l 217 174 l 217 130 l 304 130 l 304 217 l 130 217 l 87 260 l 43 304 l 43 477 l 87 521 l 130 564 l 391 564 l 434 521 l 477 477 l 477 87 l 434 43 l 391 0 l 130 0 z "},"\u0000":{"ha":0,"x_min":0,"x_max":0,"o":""},"\r":{"ha":0,"x_min":0,"x_max":0,"o":""}," ":{"ha":217,"x_min":0,"x_max":0,"o":""},"!":{"ha":260,"x_min":43,"x_max":217,"o":"m 43 0 l 43 130 l 217 130 l 217 0 l 43 0 m 43 174 l 43 564 l 217 564 l 217 174 l 43 174 z "},"\"":{"ha":391,"x_min":43,"x_max":347,"o":"m 43 347 l 43 564 l 174 564 l 174 347 l 43 347 m 217 347 l 217 564 l 347 564 l 347 347 l 217 347 z "},"#":{"ha":608,"x_min":43,"x_max":564,"o":"m 347 260 l 347 347 l 260 347 l 260 260 l 347 260 m 130 43 l 130 174 l 43 174 l 43 260 l 130 260 l 130 347 l 43 347 l 43 434 l 130 434 l 130 564 l 260 564 l 260 434 l 347 434 l 347 564 l 477 564 l 477 434 l 564 434 l 564 347 l 477 347 l 477 260 l 564 260 l 564 174 l 477 174 l 477 43 l 347 43 l 347 174 l 260 174 l 260 43 l 130 43 z "},"$":{"ha":521,"x_min":43,"x_max":477,"o":"m 217 -43 l 217 0 l 130 0 l 87 43 l 43 87 l 43 174 l 217 174 l 217 130 l 304 130 l 304 217 l 130 217 l 87 260 l 43 304 l 43 477 l 87 521 l 130 564 l 217 564 l 217 608 l 304 608 l 304 564 l 391 564 l 434 521 l 477 477 l 477 391 l 304 391 l 304 434 l 217 434 l 217 347 l 391 347 l 434 304 l 477 260 l 477 87 l 434 43 l 391 0 l 304 0 l 304 -43 l 217 -43 z "},"%":{"ha":998,"x_min":43,"x_max":955,"o":"m 825 130 l 825 304 l 738 304 l 738 130 l 825 130 m 694 43 l 651 87 l 608 130 l 608 304 l 651 347 l 694 391 l 868 391 l 911 347 l 955 304 l 955 130 l 911 87 l 868 43 l 694 43 m 260 260 l 260 434 l 174 434 l 174 260 l 260 260 m 434 43 l 434 391 l 391 391 l 391 260 l 347 217 l 304 174 l 130 174 l 87 217 l 43 260 l 43 434 l 87 477 l 130 521 l 564 521 l 564 43 l 434 43 z "},"&":{"ha":608,"x_min":43,"x_max":564,"o":"m 304 130 l 304 217 l 217 217 l 217 130 l 304 130 m 130 0 l 87 43 l 43 87 l 43 477 l 87 521 l 130 564 l 391 564 l 434 521 l 477 477 l 477 391 l 304 391 l 304 434 l 217 434 l 217 347 l 564 347 l 564 217 l 477 217 l 477 0 l 130 0 z "},"'":{"ha":195,"x_min":65,"x_max":174,"o":"m 87 347 l 87 477 l 65 477 l 65 564 l 174 564 l 174 391 q 160 359 174 372 q 130 347 148 347 l 87 347 z "},"(":{"ha":347,"x_min":43,"x_max":304,"o":"m 130 0 l 87 43 l 43 87 l 43 477 l 87 521 l 130 564 l 304 564 l 304 434 l 217 434 l 217 130 l 304 130 l 304 0 l 130 0 z "},")":{"ha":347,"x_min":43,"x_max":304,"o":"m 43 0 l 43 130 l 130 130 l 130 434 l 43 434 l 43 564 l 217 564 l 260 521 l 304 477 l 304 87 l 260 43 l 217 0 l 43 0 z "},"*":{"ha":347,"x_min":87,"x_max":304,"o":"m 87 304 l 87 347 l 130 347 l 130 304 l 87 304 m 260 304 l 260 347 l 304 347 l 304 304 l 260 304 m 87 477 l 87 521 l 130 521 l 130 477 l 87 477 m 174 304 l 174 347 l 130 347 l 130 391 l 87 391 l 87 434 l 130 434 l 130 477 l 174 477 l 174 521 l 217 521 l 217 477 l 260 477 l 260 434 l 304 434 l 304 391 l 260 391 l 260 347 l 217 347 l 217 304 l 174 304 m 260 477 l 260 521 l 304 521 l 304 477 l 260 477 z "},"+":{"ha":477,"x_min":43,"x_max":434,"o":"m 174 87 l 174 217 l 43 217 l 43 347 l 174 347 l 174 477 l 304 477 l 304 347 l 434 347 l 434 217 l 304 217 l 304 87 l 174 87 z "},",":{"ha":217,"x_min":43,"x_max":174,"o":"m 87 -87 l 87 0 l 43 0 l 43 130 l 174 130 l 174 -43 q 160 -73 174 -61 q 130 -87 148 -87 l 87 -87 z "},"-":{"ha":391,"x_min":43,"x_max":347,"o":"m 43 217 l 43 347 l 347 347 l 347 217 l 43 217 z "},".":{"ha":217,"x_min":43,"x_max":174,"o":"m 43 0 l 43 130 l 174 130 l 174 0 l 43 0 z "},"/":{"ha":391,"x_min":43,"x_max":347,"o":"m 43 -43 l 43 87 l 87 87 l 87 217 l 130 217 l 130 347 l 174 347 l 174 477 l 217 477 l 217 608 l 347 608 l 347 477 l 304 477 l 304 347 l 260 347 l 260 217 l 217 217 l 217 87 l 174 87 l 174 -43 l 43 -43 z "},":":{"ha":217,"x_min":43,"x_max":174,"o":"m 43 0 l 43 130 l 174 130 l 174 0 l 43 0 m 43 217 l 43 347 l 174 347 l 174 217 l 43 217 z "},";":{"ha":217,"x_min":43,"x_max":174,"o":"m 87 -87 l 87 0 l 43 0 l 43 130 l 174 130 l 174 -43 q 160 -73 174 -61 q 130 -87 148 -87 l 87 -87 m 43 217 l 43 347 l 174 347 l 174 217 l 43 217 z "},"<":{"ha":347,"x_min":43,"x_max":304,"o":"m 260 0 l 217 43 l 174 87 l 130 130 l 87 174 l 43 217 l 43 347 l 87 391 l 130 434 l 174 477 l 217 521 l 260 564 l 304 564 l 304 391 l 260 347 l 217 304 l 217 260 l 260 217 l 304 174 l 304 0 l 260 0 z "},"=":{"ha":391,"x_min":43,"x_max":347,"o":"m 43 130 l 43 260 l 347 260 l 347 130 l 43 130 m 43 304 l 43 434 l 347 434 l 347 304 l 43 304 z "},">":{"ha":347,"x_min":43,"x_max":304,"o":"m 43 0 l 43 174 l 87 217 l 130 260 l 130 304 l 87 347 l 43 391 l 43 564 l 87 564 l 130 521 l 174 477 l 217 434 l 260 391 l 304 347 l 304 217 l 260 174 l 217 130 l 174 87 l 130 43 l 87 0 l 43 0 z "},"?":{"ha":521,"x_min":43,"x_max":477,"o":"m 174 0 l 174 130 l 347 130 l 347 0 l 174 0 m 174 174 l 174 260 l 217 304 l 260 347 l 304 347 l 304 434 l 217 434 l 217 391 l 43 391 l 43 477 l 87 521 l 130 564 l 391 564 l 434 521 l 477 477 l 477 304 l 434 260 l 391 217 l 347 217 l 347 174 l 174 174 z "},"@":{"ha":781,"x_min":43,"x_max":738,"o":"m 434 174 l 434 217 l 347 217 l 347 174 l 434 174 m 130 -43 l 87 0 l 43 43 l 43 347 l 87 391 l 130 434 l 521 434 l 564 391 l 564 87 l 434 87 l 434 130 l 391 87 l 260 87 l 217 130 l 217 260 l 260 304 l 434 304 l 434 347 l 174 347 l 174 43 l 608 43 l 608 477 l 174 477 l 174 564 l 651 564 l 694 521 l 738 477 l 738 43 l 694 0 l 651 -43 l 130 -43 z "},"A":{"ha":521,"x_min":43,"x_max":477,"o":"m 304 304 l 304 434 l 217 434 l 217 304 l 304 304 m 43 0 l 43 477 l 87 521 l 130 564 l 391 564 l 434 521 l 477 477 l 477 0 l 304 0 l 304 174 l 217 174 l 217 0 l 43 0 z "},"B":{"ha":521,"x_min":43,"x_max":477,"o":"m 304 130 l 304 217 l 217 217 l 217 130 l 304 130 m 304 347 l 304 434 l 217 434 l 217 347 l 304 347 m 43 0 l 43 564 l 391 564 l 434 521 l 477 477 l 477 347 l 434 304 l 477 260 l 477 87 l 434 43 l 391 0 l 43 0 z "},"C":{"ha":521,"x_min":43,"x_max":477,"o":"m 130 0 l 87 43 l 43 87 l 43 477 l 87 521 l 130 564 l 391 564 l 434 521 l 477 477 l 477 347 l 304 347 l 304 434 l 217 434 l 217 130 l 304 130 l 304 217 l 477 217 l 477 87 l 434 43 l 391 0 l 130 0 z "},"D":{"ha":521,"x_min":43,"x_max":477,"o":"m 304 130 l 304 434 l 217 434 l 217 130 l 304 130 m 43 0 l 43 564 l 391 564 l 434 521 l 477 477 l 477 87 l 434 43 l 391 0 l 43 0 z "},"E":{"ha":477,"x_min":43,"x_max":434,"o":"m 130 0 l 87 43 l 43 87 l 43 477 l 87 521 l 130 564 l 434 564 l 434 434 l 217 434 l 217 369 l 391 369 l 391 239 l 217 239 l 217 130 l 434 130 l 434 0 l 130 0 z "},"F":{"ha":477,"x_min":43,"x_max":434,"o":"m 43 0 l 43 477 l 87 521 l 130 564 l 434 564 l 434 434 l 217 434 l 217 369 l 391 369 l 391 239 l 217 239 l 217 0 l 43 0 z "},"G":{"ha":521,"x_min":43,"x_max":477,"o":"m 130 0 l 87 43 l 43 87 l 43 477 l 87 521 l 130 564 l 391 564 l 434 521 l 477 477 l 477 391 l 304 391 l 304 434 l 217 434 l 217 130 l 304 130 l 304 217 l 260 217 l 260 347 l 477 347 l 477 0 l 130 0 z "},"H":{"ha":521,"x_min":43,"x_max":477,"o":"m 43 0 l 43 564 l 217 564 l 217 347 l 304 347 l 304 564 l 477 564 l 477 0 l 304 0 l 304 217 l 217 217 l 217 0 l 43 0 z "},"I":{"ha":260,"x_min":43,"x_max":217,"o":"m 43 0 l 43 564 l 217 564 l 217 0 l 43 0 z "},"J":{"ha":521,"x_min":43,"x_max":477,"o":"m 130 0 l 87 43 l 43 87 l 43 304 l 217 304 l 217 130 l 304 130 l 304 434 l 130 434 l 130 564 l 477 564 l 477 87 l 434 43 l 391 0 l 130 0 z "},"K":{"ha":521,"x_min":43,"x_max":477,"o":"m 43 0 l 43 564 l 217 564 l 217 391 l 304 391 l 304 564 l 477 564 l 477 391 l 434 347 l 477 304 l 477 0 l 304 0 l 304 260 l 217 260 l 217 0 l 43 0 z "},"L":{"ha":434,"x_min":43,"x_max":391,"o":"m 130 0 l 87 43 l 43 87 l 43 564 l 217 564 l 217 130 l 391 130 l 391 0 l 130 0 z "},"M":{"ha":781,"x_min":43,"x_max":738,"o":"m 43 0 l 43 477 l 87 521 l 130 564 l 347 564 l 391 521 l 434 564 l 651 564 l 694 521 l 738 477 l 738 0 l 564 0 l 564 434 l 477 434 l 477 0 l 304 0 l 304 434 l 217 434 l 217 0 l 43 0 z "},"N":{"ha":521,"x_min":43,"x_max":477,"o":"m 43 0 l 43 477 l 87 521 l 130 564 l 391 564 l 434 521 l 477 477 l 477 0 l 304 0 l 304 434 l 217 434 l 217 0 l 43 0 z "},"O":{"ha":521,"x_min":43,"x_max":477,"o":"m 304 130 l 304 434 l 217 434 l 217 130 l 304 130 m 130 0 l 87 43 l 43 87 l 43 477 l 87 521 l 130 564 l 391 564 l 434 521 l 477 477 l 477 87 l 434 43 l 391 0 l 130 0 z "},"P":{"ha":521,"x_min":43,"x_max":477,"o":"m 304 304 l 304 434 l 217 434 l 217 304 l 304 304 m 43 0 l 43 564 l 391 564 l 434 521 l 477 477 l 477 260 l 434 217 l 391 174 l 217 174 l 217 0 l 43 0 z "},"Q":{"ha":521,"x_min":43,"x_max":477,"o":"m 304 130 l 304 434 l 217 434 l 217 130 l 304 130 m 304 -87 l 304 0 l 130 0 l 87 43 l 43 87 l 43 477 l 87 521 l 130 564 l 391 564 l 434 521 l 477 477 l 477 87 l 434 43 l 391 0 l 477 0 l 477 -87 l 304 -87 z "},"R":{"ha":521,"x_min":43,"x_max":477,"o":"m 304 304 l 304 434 l 217 434 l 217 304 l 304 304 m 43 0 l 43 564 l 391 564 l 434 521 l 477 477 l 477 347 l 434 304 l 477 260 l 477 0 l 304 0 l 304 174 l 217 174 l 217 0 l 43 0 z "},"S":{"ha":521,"x_min":43,"x_max":477,"o":"m 130 0 l 87 43 l 43 87 l 43 174 l 217 174 l 217 130 l 304 130 l 304 217 l 130 217 l 87 260 l 43 304 l 43 477 l 87 521 l 130 564 l 391 564 l 434 521 l 477 477 l 477 391 l 304 391 l 304 434 l 217 434 l 217 347 l 391 347 l 434 304 l 477 260 l 477 87 l 434 43 l 391 0 l 130 0 z "},"T":{"ha":521,"x_min":43,"x_max":477,"o":"m 174 0 l 174 434 l 43 434 l 43 564 l 477 564 l 477 434 l 347 434 l 347 0 l 174 0 z "},"U":{"ha":521,"x_min":43,"x_max":477,"o":"m 130 0 l 87 43 l 43 87 l 43 564 l 217 564 l 217 130 l 304 130 l 304 564 l 477 564 l 477 87 l 434 43 l 391 0 l 130 0 z "},"V":{"ha":521,"x_min":43,"x_max":477,"o":"m 174 0 l 130 43 l 87 87 l 43 130 l 43 564 l 217 564 l 217 130 l 304 130 l 304 564 l 477 564 l 477 130 l 434 87 l 391 43 l 347 0 l 174 0 z "},"W":{"ha":781,"x_min":43,"x_max":738,"o":"m 130 0 l 87 43 l 43 87 l 43 564 l 217 564 l 217 130 l 304 130 l 304 434 l 477 434 l 477 130 l 564 130 l 564 564 l 738 564 l 738 87 l 694 43 l 651 0 l 434 0 l 391 43 l 347 0 l 130 0 z "},"X":{"ha":521,"x_min":43,"x_max":477,"o":"m 43 0 l 43 260 l 87 304 l 43 347 l 43 564 l 217 564 l 217 347 l 304 347 l 304 564 l 477 564 l 477 347 l 434 304 l 477 260 l 477 0 l 304 0 l 304 217 l 217 217 l 217 0 l 43 0 z "},"Y":{"ha":521,"x_min":43,"x_max":477,"o":"m 130 0 l 87 43 l 43 87 l 43 174 l 217 174 l 217 130 l 304 130 l 304 217 l 130 217 l 87 260 l 43 304 l 43 564 l 217 564 l 217 347 l 304 347 l 304 564 l 477 564 l 477 87 l 434 43 l 391 0 l 130 0 z "},"Z":{"ha":521,"x_min":43,"x_max":477,"o":"m 43 0 l 43 260 l 87 304 l 130 347 l 304 347 l 304 434 l 174 434 l 174 391 l 43 391 l 43 564 l 477 564 l 477 304 l 434 260 l 391 217 l 217 217 l 217 130 l 347 130 l 347 174 l 477 174 l 477 0 l 43 0 z "},"[":{"ha":347,"x_min":43,"x_max":304,"o":"m 43 0 l 43 564 l 304 564 l 304 434 l 217 434 l 217 130 l 304 130 l 304 0 l 43 0 z "},"\\":{"ha":391,"x_min":43,"x_max":347,"o":"m 217 -43 l 217 87 l 174 87 l 174 217 l 130 217 l 130 347 l 87 347 l 87 477 l 43 477 l 43 608 l 174 608 l 174 477 l 217 477 l 217 347 l 260 347 l 260 217 l 304 217 l 304 87 l 347 87 l 347 -43 l 217 -43 z "},"]":{"ha":347,"x_min":43,"x_max":304,"o":"m 43 0 l 43 130 l 130 130 l 130 434 l 43 434 l 43 564 l 304 564 l 304 0 l 43 0 z "},"^":{"ha":477,"x_min":43,"x_max":434,"o":"m 43 217 l 43 304 l 87 304 l 87 391 l 130 391 l 130 477 l 174 477 l 174 564 l 304 564 l 304 477 l 347 477 l 347 391 l 391 391 l 391 304 l 434 304 l 434 217 l 347 217 l 347 304 l 304 304 l 304 391 l 260 391 l 260 477 l 217 477 l 217 391 l 174 391 l 174 304 l 130 304 l 130 217 l 43 217 z "},"_":{"ha":434,"x_min":43,"x_max":391,"o":"m 43 0 l 43 130 l 391 130 l 391 0 l 43 0 z "},"`":{"ha":304,"x_min":43,"x_max":260,"o":"m 130 477 l 87 521 l 43 564 l 174 564 l 217 521 l 260 477 l 130 477 z "},"a":{"ha":543,"x_min":43,"x_max":499,"o":"m 304 130 l 304 174 l 217 174 l 217 130 l 304 130 m 130 0 l 87 43 l 43 87 l 43 174 l 87 217 l 130 260 l 304 260 l 304 304 l 109 304 l 109 434 l 391 434 l 434 391 l 477 347 l 477 130 l 499 130 l 499 0 l 304 0 l 304 43 l 260 0 l 130 0 z "},"b":{"ha":521,"x_min":43,"x_max":477,"o":"m 304 130 l 304 304 l 217 304 l 217 130 l 304 130 m 130 0 l 87 43 l 43 87 l 43 608 l 217 608 l 217 434 l 391 434 l 434 391 l 477 347 l 477 87 l 434 43 l 391 0 l 130 0 z "},"c":{"ha":477,"x_min":43,"x_max":434,"o":"m 130 0 l 87 43 l 43 87 l 43 347 l 87 391 l 130 434 l 434 434 l 434 260 l 260 260 l 260 304 l 217 304 l 217 130 l 434 130 l 434 0 l 130 0 z "},"d":{"ha":521,"x_min":43,"x_max":477,"o":"m 304 130 l 304 304 l 217 304 l 217 130 l 304 130 m 130 0 l 87 43 l 43 87 l 43 347 l 87 391 l 130 434 l 304 434 l 304 608 l 477 608 l 477 0 l 130 0 z "},"e":{"ha":521,"x_min":43,"x_max":477,"o":"m 304 260 l 304 304 l 217 304 l 217 260 l 304 260 m 130 0 l 87 43 l 43 87 l 43 347 l 87 391 l 130 434 l 391 434 l 434 391 l 477 347 l 477 174 l 217 174 l 217 130 l 477 130 l 477 0 l 130 0 z "},"f":{"ha":347,"x_min":43,"x_max":304,"o":"m 43 0 l 43 521 l 87 564 l 130 608 l 304 608 l 304 477 l 217 477 l 217 434 l 304 434 l 304 304 l 217 304 l 217 0 l 43 0 z "},"g":{"ha":521,"x_min":43,"x_max":477,"o":"m 304 -43 l 304 43 l 260 43 l 217 0 l 217 -43 l 304 -43 m 304 174 l 304 304 l 217 304 l 217 174 l 304 174 m 130 -174 l 87 -130 l 43 -87 l 43 0 l 87 43 l 130 43 l 87 87 l 43 130 l 43 347 l 87 391 l 130 434 l 477 434 l 477 -87 l 434 -130 l 391 -174 l 130 -174 z "},"h":{"ha":521,"x_min":43,"x_max":477,"o":"m 43 0 l 43 564 l 217 564 l 217 434 l 391 434 l 434 391 l 477 347 l 477 0 l 304 0 l 304 304 l 217 304 l 217 0 l 43 0 z "},"i":{"ha":260,"x_min":43,"x_max":217,"o":"m 43 0 l 43 434 l 217 434 l 217 0 l 43 0 m 43 477 l 43 564 l 217 564 l 217 477 l 43 477 z "},"j":{"ha":260,"x_min":0,"x_max":217,"o":"m 0 -174 l 0 -43 l 43 -43 l 43 434 l 217 434 l 217 -87 l 174 -130 l 130 -174 l 0 -174 m 43 477 l 43 564 l 217 564 l 217 477 l 43 477 z "},"k":{"ha":521,"x_min":43,"x_max":477,"o":"m 260 260 l 304 304 l 217 304 l 217 260 l 260 260 m 43 0 l 43 608 l 217 608 l 217 434 l 434 434 l 477 391 l 477 304 l 434 260 l 477 217 l 477 0 l 304 0 l 304 130 l 217 130 l 217 0 l 43 0 z "},"l":{"ha":304,"x_min":43,"x_max":260,"o":"m 130 0 l 87 43 l 43 87 l 43 608 l 217 608 l 217 130 l 260 130 l 260 0 l 130 0 z "},"m":{"ha":781,"x_min":43,"x_max":738,"o":"m 43 0 l 43 347 l 87 391 l 130 434 l 347 434 l 391 391 l 434 434 l 651 434 l 694 391 l 738 347 l 738 0 l 564 0 l 564 304 l 477 304 l 477 0 l 304 0 l 304 304 l 217 304 l 217 0 l 43 0 z "},"n":{"ha":521,"x_min":43,"x_max":477,"o":"m 43 0 l 43 347 l 87 391 l 130 434 l 391 434 l 434 391 l 477 347 l 477 0 l 304 0 l 304 304 l 217 304 l 217 0 l 43 0 z "},"o":{"ha":521,"x_min":43,"x_max":477,"o":"m 304 130 l 304 304 l 217 304 l 217 130 l 304 130 m 130 0 l 87 43 l 43 87 l 43 347 l 87 391 l 130 434 l 391 434 l 434 391 l 477 347 l 477 87 l 434 43 l 391 0 l 130 0 z "},"p":{"ha":521,"x_min":43,"x_max":477,"o":"m 304 130 l 304 304 l 217 304 l 217 130 l 304 130 m 43 -174 l 43 434 l 391 434 l 434 391 l 477 347 l 477 87 l 434 43 l 391 0 l 260 0 l 217 43 l 217 -174 l 43 -174 z "},"q":{"ha":521,"x_min":43,"x_max":477,"o":"m 304 130 l 304 304 l 217 304 l 217 130 l 304 130 m 304 -174 l 304 43 l 260 0 l 130 0 l 87 43 l 43 87 l 43 347 l 87 391 l 130 434 l 477 434 l 477 -174 l 304 -174 z "},"r":{"ha":347,"x_min":43,"x_max":304,"o":"m 43 0 l 43 347 l 87 391 l 130 434 l 304 434 l 304 304 l 217 304 l 217 0 l 43 0 z "},"s":{"ha":477,"x_min":43,"x_max":434,"o":"m 43 0 l 43 130 l 260 130 l 260 174 l 130 174 l 87 217 l 43 260 l 43 347 l 87 391 l 130 434 l 434 434 l 434 304 l 217 304 l 217 260 l 347 260 l 391 217 l 434 174 l 434 87 l 391 43 l 347 0 l 43 0 z "},"t":{"ha":347,"x_min":43,"x_max":304,"o":"m 130 0 l 87 43 l 43 87 l 43 564 l 217 564 l 217 434 l 304 434 l 304 304 l 217 304 l 217 130 l 304 130 l 304 0 l 130 0 z "},"u":{"ha":521,"x_min":43,"x_max":477,"o":"m 130 0 l 87 43 l 43 87 l 43 434 l 217 434 l 217 130 l 304 130 l 304 434 l 477 434 l 477 87 l 434 43 l 391 0 l 130 0 z "},"v":{"ha":521,"x_min":43,"x_max":477,"o":"m 43 0 l 43 434 l 217 434 l 217 130 l 304 130 l 304 434 l 477 434 l 477 87 l 434 43 l 391 0 l 43 0 z "},"w":{"ha":781,"x_min":43,"x_max":738,"o":"m 130 0 l 87 43 l 43 87 l 43 434 l 217 434 l 217 130 l 304 130 l 304 347 l 477 347 l 477 130 l 564 130 l 564 434 l 738 434 l 738 87 l 694 43 l 651 0 l 434 0 l 391 43 l 347 0 l 130 0 z "},"x":{"ha":521,"x_min":43,"x_max":477,"o":"m 43 0 l 43 174 l 87 217 l 43 260 l 43 434 l 217 434 l 217 304 l 304 304 l 304 434 l 477 434 l 477 260 l 434 217 l 477 174 l 477 0 l 304 0 l 304 130 l 217 130 l 217 0 l 43 0 z "},"y":{"ha":521,"x_min":43,"x_max":477,"o":"m 304 -43 l 304 43 l 260 43 l 217 0 l 217 -43 l 304 -43 m 130 -174 l 87 -130 l 43 -87 l 43 0 l 87 43 l 130 43 l 87 87 l 43 130 l 43 434 l 217 434 l 217 174 l 304 174 l 304 434 l 477 434 l 477 -87 l 434 -130 l 391 -174 l 130 -174 z "},"z":{"ha":477,"x_min":43,"x_max":434,"o":"m 43 0 l 43 174 l 87 217 l 130 260 l 260 260 l 260 304 l 43 304 l 43 434 l 434 434 l 434 260 l 391 217 l 347 174 l 217 174 l 217 130 l 434 130 l 434 0 l 43 0 z "},"{":{"ha":434,"x_min":43,"x_max":391,"o":"m 130 0 l 130 217 l 43 217 l 43 347 l 130 347 l 130 564 l 391 564 l 391 434 l 304 434 l 304 130 l 391 130 l 391 0 l 130 0 z "},"|":{"ha":217,"x_min":43,"x_max":174,"o":"m 43 -43 l 43 608 l 174 608 l 174 -43 l 43 -43 z "},"}":{"ha":434,"x_min":43,"x_max":391,"o":"m 43 0 l 43 130 l 130 130 l 130 434 l 43 434 l 43 564 l 304 564 l 304 347 l 391 347 l 391 217 l 304 217 l 304 0 l 43 0 z "},"~":{"ha":304,"x_min":43,"x_max":260,"o":"m 43 239 l 43 304 l 87 304 l 87 326 l 174 326 l 174 304 l 217 304 l 217 326 l 260 326 l 260 260 l 217 260 l 217 239 l 130 239 l 130 260 l 87 260 l 87 239 l 43 239 z "},"¡":{"ha":260,"x_min":43,"x_max":217,"o":"m 43 -174 l 43 217 l 217 217 l 217 -174 l 43 -174 m 43 260 l 43 391 l 217 391 l 217 260 l 43 260 z "},"¢":{"ha":434,"x_min":43,"x_max":391,"o":"m 260 174 l 260 391 l 217 391 l 217 174 l 260 174 m 260 0 l 260 43 l 130 43 l 87 87 l 43 130 l 43 434 l 87 477 l 130 521 l 260 521 l 260 564 l 304 564 l 304 521 l 391 521 l 391 391 l 304 391 l 304 174 l 391 174 l 391 43 l 304 43 l 304 0 l 260 0 z "},"£":{"ha":477,"x_min":43,"x_max":434,"o":"m 43 43 l 43 174 l 87 217 l 87 260 l 43 260 l 43 304 l 87 304 l 87 434 l 130 477 l 174 521 l 391 521 l 391 391 l 260 391 l 260 304 l 347 304 l 347 260 l 260 260 l 260 217 l 217 174 l 434 174 l 434 43 l 43 43 z "},"¤":{"ha":564,"x_min":43,"x_max":521,"o":"m 347 174 l 347 391 l 217 391 l 217 174 l 347 174 m 87 43 l 43 87 l 87 130 l 43 174 l 43 391 l 87 434 l 43 477 l 87 521 l 130 477 l 174 521 l 391 521 l 434 477 l 477 521 l 521 477 l 477 434 l 521 391 l 521 174 l 477 130 l 521 87 l 477 43 l 434 87 l 391 43 l 174 43 l 130 87 l 87 43 l 87 43 z "},"¥":{"ha":521,"x_min":43,"x_max":477,"o":"m 174 43 l 174 109 l 87 109 l 87 152 l 174 152 l 174 174 l 87 174 l 87 217 l 174 217 l 174 260 l 130 260 l 87 304 l 43 347 l 43 521 l 217 521 l 217 347 l 304 347 l 304 521 l 477 521 l 477 347 l 434 304 l 391 260 l 347 260 l 347 217 l 434 217 l 434 174 l 347 174 l 347 152 l 434 152 l 434 109 l 347 109 l 347 43 l 174 43 z "},"¦":{"ha":260,"x_min":43,"x_max":217,"o":"m 43 0 l 43 260 l 217 260 l 217 0 l 43 0 m 43 347 l 43 608 l 217 608 l 217 347 l 43 347 z "},"§":{"ha":477,"x_min":43,"x_max":434,"o":"m 304 260 l 304 304 l 174 304 l 174 260 l 304 260 m 43 -43 l 43 87 l 304 87 l 304 130 l 87 130 l 43 174 l 43 304 l 87 347 l 43 391 l 43 521 l 87 564 l 130 608 l 434 608 l 434 477 l 174 477 l 174 434 l 391 434 l 434 391 l 434 260 l 391 217 l 434 174 l 434 43 l 391 0 l 347 -43 l 43 -43 z "},"¨":{"ha":434,"x_min":130,"x_max":391,"o":"m 130 477 l 130 564 l 217 564 l 217 477 l 130 477 m 304 477 l 304 564 l 391 564 l 391 477 l 304 477 z "},"©":{"ha":564,"x_min":43,"x_max":521,"o":"m 217 130 l 174 174 l 174 391 l 217 434 l 347 434 l 391 391 l 391 304 l 304 304 l 304 347 l 260 347 l 260 217 l 304 217 l 304 260 l 391 260 l 391 174 l 347 130 l 217 130 m 434 87 l 434 477 l 130 477 l 130 87 l 434 87 m 130 0 l 87 43 l 43 87 l 43 477 l 87 521 l 130 564 l 434 564 l 477 521 l 521 477 l 521 87 l 477 43 l 434 0 l 130 0 z "},"ª":{"ha":412,"x_min":43,"x_max":369,"o":"m 217 347 l 217 391 l 174 391 l 174 347 l 217 347 m 87 260 l 43 304 l 43 391 l 87 434 l 217 434 l 217 477 l 109 477 l 109 564 l 304 564 l 347 521 l 347 347 l 369 347 l 369 260 l 217 260 l 217 304 l 174 260 l 87 260 z "},"«":{"ha":564,"x_min":43,"x_max":521,"o":"m 217 43 l 174 87 l 130 130 l 87 174 l 43 217 l 43 347 l 87 391 l 130 434 l 174 477 l 217 521 l 260 521 l 260 347 l 217 304 l 217 260 l 260 217 l 260 43 l 217 43 m 477 43 l 434 87 l 391 130 l 347 174 l 304 217 l 304 347 l 347 391 l 391 434 l 434 477 l 477 521 l 521 521 l 521 347 l 477 304 l 477 260 l 521 217 l 521 43 l 477 43 z "},"¬":{"ha":521,"x_min":43,"x_max":477,"o":"m 347 130 l 347 217 l 43 217 l 43 347 l 477 347 l 477 130 l 347 130 z "},"­":{"ha":304,"x_min":43,"x_max":260,"o":"m 43 217 l 43 347 l 260 347 l 260 217 l 43 217 z "},"®":{"ha":564,"x_min":43,"x_max":521,"o":"m 304 304 l 304 347 l 260 347 l 260 304 l 304 304 m 174 130 l 174 434 l 347 434 l 391 391 l 391 347 l 347 304 l 391 260 l 391 130 l 304 130 l 304 217 l 260 217 l 260 130 l 174 130 m 434 87 l 434 477 l 130 477 l 130 87 l 434 87 m 130 0 l 87 43 l 43 87 l 43 477 l 87 521 l 130 564 l 434 564 l 477 521 l 521 477 l 521 87 l 477 43 l 434 0 l 130 0 z "},"¯":{"ha":434,"x_min":43,"x_max":391,"o":"m 43 477 l 43 564 l 391 564 l 391 477 l 43 477 z "},"°":{"ha":304,"x_min":43,"x_max":260,"o":"m 174 434 l 174 477 l 130 477 l 130 434 l 174 434 m 87 347 l 43 391 l 43 521 l 87 564 l 217 564 l 260 521 l 260 391 l 217 347 l 87 347 z "},"±":{"ha":477,"x_min":43,"x_max":434,"o":"m 87 43 l 87 174 l 391 174 l 391 43 l 87 43 m 174 217 l 174 304 l 43 304 l 43 434 l 174 434 l 174 521 l 304 521 l 304 434 l 434 434 l 434 304 l 304 304 l 304 217 l 174 217 z "},"²":{"ha":391,"x_min":43,"x_max":347,"o":"m 43 260 l 43 391 l 87 434 l 217 434 l 217 477 l 152 477 l 152 456 l 43 456 l 43 521 l 87 564 l 304 564 l 347 521 l 347 369 l 174 369 l 174 347 l 347 347 l 347 260 l 43 260 z "},"³":{"ha":391,"x_min":43,"x_max":347,"o":"m 87 260 l 43 304 l 43 369 l 152 369 l 152 347 l 217 347 l 217 369 l 174 369 l 174 456 l 217 456 l 217 477 l 152 477 l 152 456 l 43 456 l 43 521 l 87 564 l 304 564 l 347 521 l 347 477 l 304 434 l 347 391 l 347 304 l 304 260 l 87 260 z "},"´":{"ha":304,"x_min":43,"x_max":260,"o":"m 43 477 l 87 521 l 130 564 l 260 564 l 217 521 l 174 477 l 43 477 z "},"µ":{"ha":521,"x_min":43,"x_max":477,"o":"m 43 -174 l 43 434 l 217 434 l 217 130 l 304 130 l 304 434 l 477 434 l 477 87 l 434 43 l 391 0 l 260 0 l 217 43 l 217 -174 l 43 -174 z "},"¶":{"ha":521,"x_min":43,"x_max":477,"o":"m 174 0 l 174 217 l 130 217 l 87 260 l 43 304 l 43 477 l 87 521 l 130 564 l 477 564 l 477 0 l 347 0 l 347 477 l 304 477 l 304 0 l 174 0 z "},"·":{"ha":174,"x_min":43,"x_max":130,"o":"m 43 239 l 43 326 l 130 326 l 130 239 l 43 239 z "},"¸":{"ha":217,"x_min":43,"x_max":174,"o":"m 43 -174 l 43 -130 l 130 -130 l 130 -87 l 43 -87 l 43 -43 l 87 0 l 87 -43 l 130 -43 l 174 -87 l 174 -130 l 130 -174 l 43 -174 z "},"¹":{"ha":260,"x_min":43,"x_max":217,"o":"m 43 217 l 43 304 l 87 304 l 87 477 l 43 477 l 43 521 l 87 564 l 174 564 l 174 304 l 217 304 l 217 217 l 43 217 z "},"º":{"ha":391,"x_min":43,"x_max":347,"o":"m 217 347 l 217 477 l 174 477 l 174 347 l 217 347 m 130 260 l 87 304 l 43 347 l 43 477 l 87 521 l 130 564 l 260 564 l 304 521 l 347 477 l 347 347 l 304 304 l 260 260 l 130 260 z "},"»":{"ha":564,"x_min":43,"x_max":521,"o":"m 43 43 l 43 217 l 87 260 l 87 304 l 43 347 l 43 521 l 87 521 l 130 477 l 174 434 l 217 391 l 260 347 l 260 217 l 217 174 l 174 130 l 130 87 l 87 43 l 43 43 m 304 43 l 304 217 l 347 260 l 347 304 l 304 347 l 304 521 l 347 521 l 391 477 l 434 434 l 477 391 l 521 347 l 521 217 l 477 174 l 434 130 l 391 87 l 347 43 l 304 43 z "},"¼":{"ha":760,"x_min":43,"x_max":716,"o":"m 608 152 l 608 217 l 564 174 l 564 152 l 608 152 m 608 0 l 608 65 l 434 65 l 434 174 l 477 217 l 521 260 l 564 304 l 716 304 l 716 0 l 608 0 m 43 174 l 43 260 l 87 260 l 87 391 l 43 391 l 43 434 l 87 477 l 195 477 l 195 260 l 239 260 l 239 174 l 43 174 m 217 0 l 217 87 l 260 87 l 260 174 l 304 174 l 304 260 l 347 260 l 347 347 l 391 347 l 391 434 l 434 434 l 434 521 l 521 521 l 521 434 l 477 434 l 477 347 l 434 347 l 434 260 l 391 260 l 391 174 l 347 174 l 347 87 l 304 87 l 304 0 l 217 0 z "},"½":{"ha":825,"x_min":43,"x_max":781,"o":"m 477 0 l 477 130 l 521 174 l 651 174 l 651 217 l 586 217 l 586 195 l 477 195 l 477 260 l 521 304 l 738 304 l 781 260 l 781 109 l 608 109 l 608 87 l 781 87 l 781 0 l 477 0 m 43 174 l 43 260 l 87 260 l 87 391 l 43 391 l 43 434 l 87 477 l 195 477 l 195 260 l 239 260 l 239 174 l 43 174 m 217 0 l 217 87 l 260 87 l 260 174 l 304 174 l 304 260 l 347 260 l 347 347 l 391 347 l 391 434 l 434 434 l 434 521 l 521 521 l 521 434 l 477 434 l 477 347 l 434 347 l 434 260 l 391 260 l 391 174 l 347 174 l 347 87 l 304 87 l 304 0 l 217 0 z "},"¾":{"ha":933,"x_min":87,"x_max":890,"o":"m 738 152 l 738 217 l 694 174 l 694 152 l 738 152 m 738 0 l 738 65 l 564 65 l 564 174 l 608 217 l 651 260 l 694 304 l 868 304 l 868 152 l 890 152 l 890 65 l 868 65 l 868 0 l 738 0 m 130 174 l 87 217 l 87 282 l 195 282 l 195 260 l 260 260 l 260 282 l 217 282 l 217 369 l 260 369 l 260 391 l 195 391 l 195 369 l 87 369 l 87 434 l 130 477 l 347 477 l 391 434 l 391 391 l 347 347 l 391 304 l 391 217 l 347 174 l 130 174 m 347 0 l 347 87 l 391 87 l 391 174 l 434 174 l 434 260 l 477 260 l 477 347 l 521 347 l 521 434 l 564 434 l 564 521 l 651 521 l 651 434 l 608 434 l 608 347 l 564 347 l 564 260 l 521 260 l 521 174 l 477 174 l 477 87 l 434 87 l 434 0 l 347 0 z "},"¿":{"ha":521,"x_min":43,"x_max":477,"o":"m 130 -174 l 87 -130 l 43 -87 l 43 87 l 87 130 l 130 174 l 174 174 l 174 217 l 347 217 l 347 130 l 304 87 l 260 43 l 217 43 l 217 -43 l 304 -43 l 304 0 l 477 0 l 477 -87 l 434 -130 l 391 -174 l 130 -174 m 174 260 l 174 391 l 347 391 l 347 260 l 174 260 z "},"À":{"ha":521,"x_min":43,"x_max":477,"o":"m 304 304 l 304 434 l 217 434 l 217 304 l 304 304 m 43 0 l 43 477 l 87 521 l 130 564 l 391 564 l 434 521 l 477 477 l 477 0 l 304 0 l 304 174 l 217 174 l 217 0 l 43 0 m 217 608 l 174 651 l 130 694 l 260 694 l 304 651 l 347 608 l 217 608 z "},"Á":{"ha":521,"x_min":43,"x_max":477,"o":"m 304 304 l 304 434 l 217 434 l 217 304 l 304 304 m 43 0 l 43 477 l 87 521 l 130 564 l 391 564 l 434 521 l 477 477 l 477 0 l 304 0 l 304 174 l 217 174 l 217 0 l 43 0 m 174 608 l 217 651 l 260 694 l 391 694 l 347 651 l 304 608 l 174 608 z "},"Â":{"ha":521,"x_min":43,"x_max":477,"o":"m 304 304 l 304 434 l 217 434 l 217 304 l 304 304 m 43 0 l 43 477 l 87 521 l 130 564 l 391 564 l 434 521 l 477 477 l 477 0 l 304 0 l 304 174 l 217 174 l 217 0 l 43 0 m 87 608 l 130 651 l 174 694 l 347 694 l 391 651 l 434 608 l 304 608 l 260 651 l 217 608 l 87 608 z "},"Ã":{"ha":521,"x_min":43,"x_max":477,"o":"m 304 304 l 304 434 l 217 434 l 217 304 l 304 304 m 43 0 l 43 477 l 87 521 l 130 564 l 391 564 l 434 521 l 477 477 l 477 0 l 304 0 l 304 174 l 217 174 l 217 0 l 43 0 m 152 629 l 152 694 l 195 694 l 195 716 l 282 716 l 282 694 l 326 694 l 326 716 l 369 716 l 369 651 l 326 651 l 326 629 l 239 629 l 239 651 l 195 651 l 195 629 l 152 629 z "},"Ä":{"ha":521,"x_min":43,"x_max":477,"o":"m 304 304 l 304 434 l 217 434 l 217 304 l 304 304 m 43 0 l 43 477 l 87 521 l 130 564 l 391 564 l 434 521 l 477 477 l 477 0 l 304 0 l 304 174 l 217 174 l 217 0 l 43 0 m 130 608 l 130 694 l 217 694 l 217 608 l 130 608 m 304 608 l 304 694 l 391 694 l 391 608 l 304 608 z "},"Å":{"ha":521,"x_min":43,"x_max":477,"o":"m 304 304 l 304 434 l 217 434 l 217 304 l 304 304 m 43 0 l 43 477 l 87 521 l 130 564 l 391 564 l 434 521 l 477 477 l 477 0 l 304 0 l 304 174 l 217 174 l 217 0 l 43 0 m 304 651 l 304 694 l 217 694 l 217 651 l 304 651 m 217 608 l 174 651 l 174 694 l 217 738 l 304 738 l 347 694 l 347 651 l 304 608 l 217 608 z "},"Æ":{"ha":738,"x_min":43,"x_max":694,"o":"m 304 304 l 304 434 l 217 434 l 217 304 l 304 304 m 43 0 l 43 477 l 87 521 l 130 564 l 694 564 l 694 434 l 477 434 l 477 369 l 651 369 l 651 239 l 477 239 l 477 130 l 694 130 l 694 0 l 304 0 l 304 174 l 217 174 l 217 0 l 43 0 z "},"Ç":{"ha":521,"x_min":43,"x_max":477,"o":"m 217 -174 l 217 -130 l 304 -130 l 304 -87 l 217 -87 l 217 -43 l 260 0 l 260 -43 l 304 -43 l 347 -87 l 347 -130 l 304 -174 l 217 -174 m 130 0 l 87 43 l 43 87 l 43 477 l 87 521 l 130 564 l 391 564 l 434 521 l 477 477 l 477 347 l 304 347 l 304 434 l 217 434 l 217 130 l 304 130 l 304 217 l 477 217 l 477 87 l 434 43 l 391 0 l 130 0 z "},"È":{"ha":477,"x_min":43,"x_max":434,"o":"m 130 0 l 87 43 l 43 87 l 43 477 l 87 521 l 130 564 l 434 564 l 434 434 l 217 434 l 217 369 l 391 369 l 391 239 l 217 239 l 217 130 l 434 130 l 434 0 l 130 0 m 217 608 l 174 651 l 130 694 l 260 694 l 304 651 l 347 608 l 217 608 z "},"É":{"ha":477,"x_min":43,"x_max":434,"o":"m 130 0 l 87 43 l 43 87 l 43 477 l 87 521 l 130 564 l 434 564 l 434 434 l 217 434 l 217 369 l 391 369 l 391 239 l 217 239 l 217 130 l 434 130 l 434 0 l 130 0 m 174 608 l 217 651 l 260 694 l 391 694 l 347 651 l 304 608 l 174 608 z "},"Ê":{"ha":477,"x_min":43,"x_max":434,"o":"m 130 0 l 87 43 l 43 87 l 43 477 l 87 521 l 130 564 l 434 564 l 434 434 l 217 434 l 217 369 l 391 369 l 391 239 l 217 239 l 217 130 l 434 130 l 434 0 l 130 0 m 87 608 l 130 651 l 174 694 l 347 694 l 391 651 l 434 608 l 304 608 l 260 651 l 217 608 l 87 608 z "},"Ë":{"ha":477,"x_min":43,"x_max":434,"o":"m 130 0 l 87 43 l 43 87 l 43 477 l 87 521 l 130 564 l 434 564 l 434 434 l 217 434 l 217 369 l 391 369 l 391 239 l 217 239 l 217 130 l 434 130 l 434 0 l 130 0 m 130 608 l 130 694 l 217 694 l 217 608 l 130 608 m 304 608 l 304 694 l 391 694 l 391 608 l 304 608 z "},"Ì":{"ha":260,"x_min":0,"x_max":217,"o":"m 43 0 l 43 564 l 217 564 l 217 0 l 43 0 m 87 608 l 43 651 l 0 694 l 130 694 l 174 651 l 217 608 l 87 608 z "},"Í":{"ha":304,"x_min":43,"x_max":260,"o":"m 43 0 l 43 564 l 217 564 l 217 0 l 43 0 m 43 608 l 87 651 l 130 694 l 260 694 l 217 651 l 174 608 l 43 608 z "},"Î":{"ha":304,"x_min":0,"x_max":260,"o":"m 43 0 l 43 564 l 217 564 l 217 0 l 43 0 m 0 608 l 43 651 l 87 694 l 174 694 l 217 651 l 260 608 l 174 608 l 130 651 l 87 608 l 0 608 z "},"Ï":{"ha":304,"x_min":0,"x_max":260,"o":"m 43 0 l 43 564 l 217 564 l 217 0 l 43 0 m 0 608 l 0 694 l 87 694 l 87 608 l 0 608 m 174 608 l 174 694 l 260 694 l 260 608 l 174 608 z "},"Ð":{"ha":564,"x_min":0,"x_max":521,"o":"m 347 130 l 347 434 l 217 434 l 217 347 l 304 347 l 304 217 l 217 217 l 217 130 l 347 130 m 43 0 l 43 217 l 0 217 l 0 347 l 43 347 l 43 564 l 434 564 l 477 521 l 521 477 l 521 87 l 477 43 l 434 0 l 43 0 z "},"Ñ":{"ha":521,"x_min":43,"x_max":477,"o":"m 43 0 l 43 477 l 87 521 l 130 564 l 391 564 l 434 521 l 477 477 l 477 0 l 304 0 l 304 434 l 217 434 l 217 0 l 43 0 m 130 629 l 130 694 l 174 694 l 174 716 l 260 716 l 260 694 l 304 694 l 304 716 l 347 716 l 347 651 l 304 651 l 304 629 l 217 629 l 217 651 l 174 651 l 174 629 l 130 629 z "},"Ò":{"ha":521,"x_min":43,"x_max":477,"o":"m 304 130 l 304 434 l 217 434 l 217 130 l 304 130 m 130 0 l 87 43 l 43 87 l 43 477 l 87 521 l 130 564 l 391 564 l 434 521 l 477 477 l 477 87 l 434 43 l 391 0 l 130 0 m 217 608 l 174 651 l 130 694 l 260 694 l 304 651 l 347 608 l 217 608 z "},"Ó":{"ha":521,"x_min":43,"x_max":477,"o":"m 304 130 l 304 434 l 217 434 l 217 130 l 304 130 m 130 0 l 87 43 l 43 87 l 43 477 l 87 521 l 130 564 l 391 564 l 434 521 l 477 477 l 477 87 l 434 43 l 391 0 l 130 0 m 174 608 l 217 651 l 260 694 l 391 694 l 347 651 l 304 608 l 174 608 z "},"Ô":{"ha":521,"x_min":43,"x_max":477,"o":"m 304 130 l 304 434 l 217 434 l 217 130 l 304 130 m 130 0 l 87 43 l 43 87 l 43 477 l 87 521 l 130 564 l 391 564 l 434 521 l 477 477 l 477 87 l 434 43 l 391 0 l 130 0 m 87 608 l 130 651 l 174 694 l 347 694 l 391 651 l 434 608 l 304 608 l 260 651 l 217 608 l 87 608 z "},"Õ":{"ha":521,"x_min":43,"x_max":477,"o":"m 304 130 l 304 434 l 217 434 l 217 130 l 304 130 m 130 0 l 87 43 l 43 87 l 43 477 l 87 521 l 130 564 l 391 564 l 434 521 l 477 477 l 477 87 l 434 43 l 391 0 l 130 0 m 152 629 l 152 694 l 195 694 l 195 716 l 282 716 l 282 694 l 326 694 l 326 716 l 369 716 l 369 651 l 326 651 l 326 629 l 239 629 l 239 651 l 195 651 l 195 629 l 152 629 z "},"Ö":{"ha":521,"x_min":43,"x_max":477,"o":"m 304 130 l 304 434 l 217 434 l 217 130 l 304 130 m 130 0 l 87 43 l 43 87 l 43 477 l 87 521 l 130 564 l 391 564 l 434 521 l 477 477 l 477 87 l 434 43 l 391 0 l 130 0 m 130 608 l 130 694 l 217 694 l 217 608 l 130 608 m 304 608 l 304 694 l 391 694 l 391 608 l 304 608 z "},"×":{"ha":391,"x_min":43,"x_max":347,"o":"m 43 87 l 43 260 l 87 304 l 43 347 l 43 477 l 174 477 l 174 347 l 217 347 l 217 477 l 347 477 l 347 347 l 304 304 l 347 260 l 347 87 l 217 87 l 217 217 l 174 217 l 174 87 l 43 87 z "},"Ø":{"ha":521,"x_min":43,"x_max":477,"o":"m 304 130 l 304 304 l 260 260 l 217 217 l 217 130 l 304 130 m 217 260 l 260 304 l 304 347 l 304 434 l 217 434 l 217 260 l 217 260 m 130 0 l 87 43 l 43 87 l 43 477 l 87 521 l 130 564 l 391 564 l 434 521 l 477 477 l 477 87 l 434 43 l 391 0 l 130 0 z "},"Ù":{"ha":521,"x_min":43,"x_max":477,"o":"m 130 0 l 87 43 l 43 87 l 43 564 l 217 564 l 217 130 l 304 130 l 304 564 l 477 564 l 477 87 l 434 43 l 391 0 l 130 0 m 217 608 l 174 651 l 130 694 l 260 694 l 304 651 l 347 608 l 217 608 z "},"Ú":{"ha":521,"x_min":43,"x_max":477,"o":"m 130 0 l 87 43 l 43 87 l 43 564 l 217 564 l 217 130 l 304 130 l 304 564 l 477 564 l 477 87 l 434 43 l 391 0 l 130 0 m 174 608 l 217 651 l 260 694 l 391 694 l 347 651 l 304 608 l 174 608 z "},"Û":{"ha":521,"x_min":43,"x_max":477,"o":"m 130 0 l 87 43 l 43 87 l 43 564 l 217 564 l 217 130 l 304 130 l 304 564 l 477 564 l 477 87 l 434 43 l 391 0 l 130 0 m 87 608 l 130 651 l 174 694 l 347 694 l 391 651 l 434 608 l 304 608 l 260 651 l 217 608 l 87 608 z "},"Ü":{"ha":521,"x_min":43,"x_max":477,"o":"m 130 0 l 87 43 l 43 87 l 43 564 l 217 564 l 217 130 l 304 130 l 304 564 l 477 564 l 477 87 l 434 43 l 391 0 l 130 0 m 130 608 l 130 694 l 217 694 l 217 608 l 130 608 m 304 608 l 304 694 l 391 694 l 391 608 l 304 608 z "},"Ý":{"ha":521,"x_min":43,"x_max":477,"o":"m 130 0 l 87 43 l 43 87 l 43 174 l 217 174 l 217 130 l 304 130 l 304 217 l 130 217 l 87 260 l 43 304 l 43 564 l 217 564 l 217 347 l 304 347 l 304 564 l 477 564 l 477 87 l 434 43 l 391 0 l 130 0 m 174 608 l 217 651 l 260 694 l 391 694 l 347 651 l 304 608 l 174 608 z "},"Þ":{"ha":564,"x_min":43,"x_max":521,"o":"m 347 217 l 347 391 l 217 391 l 217 217 l 347 217 m 43 0 l 43 564 l 217 564 l 217 521 l 434 521 l 477 477 l 521 434 l 521 174 l 477 130 l 434 87 l 217 87 l 217 0 l 43 0 z "},"ß":{"ha":651,"x_min":43,"x_max":608,"o":"m 43 0 l 43 477 l 87 521 l 130 564 l 434 564 l 477 521 l 521 477 l 521 391 l 477 347 l 434 304 l 521 304 l 564 260 l 608 217 l 608 87 l 564 43 l 521 0 l 260 0 l 260 130 l 434 130 l 434 174 l 304 174 l 260 217 l 260 304 l 304 347 l 347 391 l 347 434 l 217 434 l 217 0 l 43 0 z "},"à":{"ha":543,"x_min":43,"x_max":499,"o":"m 304 130 l 304 174 l 217 174 l 217 130 l 304 130 m 130 0 l 87 43 l 43 87 l 43 174 l 87 217 l 130 260 l 304 260 l 304 304 l 109 304 l 109 434 l 391 434 l 434 391 l 477 347 l 477 130 l 499 130 l 499 0 l 304 0 l 304 43 l 260 0 l 130 0 m 217 477 l 174 521 l 130 564 l 260 564 l 304 521 l 347 477 l 217 477 z "},"á":{"ha":543,"x_min":43,"x_max":499,"o":"m 304 130 l 304 174 l 217 174 l 217 130 l 304 130 m 130 0 l 87 43 l 43 87 l 43 174 l 87 217 l 130 260 l 304 260 l 304 304 l 109 304 l 109 434 l 391 434 l 434 391 l 477 347 l 477 130 l 499 130 l 499 0 l 304 0 l 304 43 l 260 0 l 130 0 m 174 477 l 217 521 l 260 564 l 391 564 l 347 521 l 304 477 l 174 477 z "},"â":{"ha":543,"x_min":43,"x_max":499,"o":"m 304 130 l 304 174 l 217 174 l 217 130 l 304 130 m 130 0 l 87 43 l 43 87 l 43 174 l 87 217 l 130 260 l 304 260 l 304 304 l 109 304 l 109 434 l 391 434 l 434 391 l 477 347 l 477 130 l 499 130 l 499 0 l 304 0 l 304 43 l 260 0 l 130 0 m 87 477 l 130 521 l 174 564 l 347 564 l 391 521 l 434 477 l 304 477 l 260 521 l 217 477 l 87 477 z "},"ã":{"ha":543,"x_min":43,"x_max":499,"o":"m 304 130 l 304 174 l 217 174 l 217 130 l 304 130 m 130 0 l 87 43 l 43 87 l 43 174 l 87 217 l 130 260 l 304 260 l 304 304 l 109 304 l 109 434 l 391 434 l 434 391 l 477 347 l 477 130 l 499 130 l 499 0 l 304 0 l 304 43 l 260 0 l 130 0 m 174 499 l 174 564 l 217 564 l 217 586 l 304 586 l 304 564 l 347 564 l 347 586 l 391 586 l 391 521 l 347 521 l 347 499 l 260 499 l 260 521 l 217 521 l 217 499 l 174 499 z "},"ä":{"ha":543,"x_min":43,"x_max":499,"o":"m 304 130 l 304 174 l 217 174 l 217 130 l 304 130 m 130 0 l 87 43 l 43 87 l 43 174 l 87 217 l 130 260 l 304 260 l 304 304 l 109 304 l 109 434 l 391 434 l 434 391 l 477 347 l 477 130 l 499 130 l 499 0 l 304 0 l 304 43 l 260 0 l 130 0 m 130 477 l 130 564 l 217 564 l 217 477 l 130 477 m 304 477 l 304 564 l 391 564 l 391 477 l 304 477 z "},"å":{"ha":543,"x_min":43,"x_max":499,"o":"m 304 130 l 304 174 l 217 174 l 217 130 l 304 130 m 130 0 l 87 43 l 43 87 l 43 174 l 87 217 l 130 260 l 304 260 l 304 304 l 109 304 l 109 434 l 391 434 l 434 391 l 477 347 l 477 130 l 499 130 l 499 0 l 304 0 l 304 43 l 260 0 l 130 0 m 304 521 l 304 564 l 217 564 l 217 521 l 304 521 m 217 477 l 174 521 l 174 564 l 217 608 l 304 608 l 347 564 l 347 521 l 304 477 l 217 477 z "},"æ":{"ha":781,"x_min":43,"x_max":738,"o":"m 304 130 l 304 174 l 217 174 l 217 130 l 304 130 m 564 260 l 564 304 l 477 304 l 477 260 l 564 260 m 130 0 l 87 43 l 43 87 l 43 174 l 87 217 l 130 260 l 304 260 l 304 304 l 109 304 l 109 434 l 651 434 l 694 391 l 738 347 l 738 174 l 477 174 l 477 130 l 738 130 l 738 0 l 304 0 l 304 43 l 260 0 l 130 0 z "},"ç":{"ha":477,"x_min":43,"x_max":434,"o":"m 217 -174 l 217 -130 l 304 -130 l 304 -87 l 217 -87 l 217 -43 l 260 0 l 260 -43 l 304 -43 l 347 -87 l 347 -130 l 304 -174 l 217 -174 m 130 0 l 87 43 l 43 87 l 43 347 l 87 391 l 130 434 l 434 434 l 434 260 l 260 260 l 260 304 l 217 304 l 217 130 l 434 130 l 434 0 l 130 0 z "},"è":{"ha":521,"x_min":43,"x_max":477,"o":"m 304 260 l 304 304 l 217 304 l 217 260 l 304 260 m 130 0 l 87 43 l 43 87 l 43 347 l 87 391 l 130 434 l 391 434 l 434 391 l 477 347 l 477 174 l 217 174 l 217 130 l 477 130 l 477 0 l 130 0 m 217 477 l 174 521 l 130 564 l 260 564 l 304 521 l 347 477 l 217 477 z "},"é":{"ha":521,"x_min":43,"x_max":477,"o":"m 304 260 l 304 304 l 217 304 l 217 260 l 304 260 m 130 0 l 87 43 l 43 87 l 43 347 l 87 391 l 130 434 l 391 434 l 434 391 l 477 347 l 477 174 l 217 174 l 217 130 l 477 130 l 477 0 l 130 0 m 174 477 l 217 521 l 260 564 l 391 564 l 347 521 l 304 477 l 174 477 z "},"ê":{"ha":521,"x_min":43,"x_max":477,"o":"m 304 260 l 304 304 l 217 304 l 217 260 l 304 260 m 130 0 l 87 43 l 43 87 l 43 347 l 87 391 l 130 434 l 391 434 l 434 391 l 477 347 l 477 174 l 217 174 l 217 130 l 477 130 l 477 0 l 130 0 m 87 477 l 130 521 l 174 564 l 347 564 l 391 521 l 434 477 l 304 477 l 260 521 l 217 477 l 87 477 z "},"ë":{"ha":521,"x_min":43,"x_max":477,"o":"m 304 260 l 304 304 l 217 304 l 217 260 l 304 260 m 130 0 l 87 43 l 43 87 l 43 347 l 87 391 l 130 434 l 391 434 l 434 391 l 477 347 l 477 174 l 217 174 l 217 130 l 477 130 l 477 0 l 130 0 m 130 477 l 130 564 l 217 564 l 217 477 l 130 477 m 304 477 l 304 564 l 391 564 l 391 477 l 304 477 z "},"ì":{"ha":260,"x_min":0,"x_max":217,"o":"m 43 0 l 43 434 l 217 434 l 217 0 l 43 0 m 87 477 l 43 521 l 0 564 l 130 564 l 174 521 l 217 477 l 87 477 z "},"í":{"ha":304,"x_min":43,"x_max":260,"o":"m 43 0 l 43 434 l 217 434 l 217 0 l 43 0 m 43 477 l 87 521 l 130 564 l 260 564 l 217 521 l 174 477 l 43 477 z "},"î":{"ha":304,"x_min":0,"x_max":260,"o":"m 43 0 l 43 434 l 217 434 l 217 0 l 43 0 m 0 477 l 43 521 l 87 564 l 174 564 l 217 521 l 260 477 l 174 477 l 130 521 l 87 477 l 0 477 z "},"ï":{"ha":304,"x_min":0,"x_max":260,"o":"m 43 0 l 43 434 l 217 434 l 217 0 l 43 0 m 0 477 l 0 564 l 87 564 l 87 477 l 0 477 m 174 477 l 174 564 l 260 564 l 260 477 l 174 477 z "},"ð":{"ha":521,"x_min":43,"x_max":477,"o":"m 304 130 l 304 217 l 217 217 l 217 130 l 304 130 m 130 0 l 87 43 l 43 87 l 43 260 l 87 304 l 130 347 l 304 347 l 304 434 l 260 434 l 217 391 l 87 391 l 130 434 l 43 434 l 43 477 l 87 521 l 130 564 l 260 564 l 304 608 l 434 608 l 391 564 l 434 521 l 477 477 l 477 87 l 434 43 l 391 0 l 130 0 z "},"ñ":{"ha":521,"x_min":43,"x_max":477,"o":"m 43 0 l 43 347 l 87 391 l 130 434 l 391 434 l 434 391 l 477 347 l 477 0 l 304 0 l 304 304 l 217 304 l 217 0 l 43 0 m 130 499 l 130 564 l 174 564 l 174 586 l 260 586 l 260 564 l 304 564 l 304 586 l 347 586 l 347 521 l 304 521 l 304 499 l 217 499 l 217 521 l 174 521 l 174 499 l 130 499 z "},"ò":{"ha":521,"x_min":43,"x_max":477,"o":"m 304 130 l 304 304 l 217 304 l 217 130 l 304 130 m 130 0 l 87 43 l 43 87 l 43 347 l 87 391 l 130 434 l 391 434 l 434 391 l 477 347 l 477 87 l 434 43 l 391 0 l 130 0 m 217 477 l 174 521 l 130 564 l 260 564 l 304 521 l 347 477 l 217 477 z "},"ó":{"ha":521,"x_min":43,"x_max":477,"o":"m 304 130 l 304 304 l 217 304 l 217 130 l 304 130 m 130 0 l 87 43 l 43 87 l 43 347 l 87 391 l 130 434 l 391 434 l 434 391 l 477 347 l 477 87 l 434 43 l 391 0 l 130 0 m 174 477 l 217 521 l 260 564 l 391 564 l 347 521 l 304 477 l 174 477 z "},"ô":{"ha":521,"x_min":43,"x_max":477,"o":"m 304 130 l 304 304 l 217 304 l 217 130 l 304 130 m 130 0 l 87 43 l 43 87 l 43 347 l 87 391 l 130 434 l 391 434 l 434 391 l 477 347 l 477 87 l 434 43 l 391 0 l 130 0 m 87 477 l 130 521 l 174 564 l 347 564 l 391 521 l 434 477 l 304 477 l 260 521 l 217 477 l 87 477 z "},"õ":{"ha":521,"x_min":43,"x_max":477,"o":"m 304 130 l 304 304 l 217 304 l 217 130 l 304 130 m 130 0 l 87 43 l 43 87 l 43 347 l 87 391 l 130 434 l 391 434 l 434 391 l 477 347 l 477 87 l 434 43 l 391 0 l 130 0 m 152 499 l 152 564 l 195 564 l 195 586 l 282 586 l 282 564 l 326 564 l 326 586 l 369 586 l 369 521 l 326 521 l 326 499 l 239 499 l 239 521 l 195 521 l 195 499 l 152 499 z "},"ö":{"ha":521,"x_min":43,"x_max":477,"o":"m 304 130 l 304 304 l 217 304 l 217 130 l 304 130 m 130 0 l 87 43 l 43 87 l 43 347 l 87 391 l 130 434 l 391 434 l 434 391 l 477 347 l 477 87 l 434 43 l 391 0 l 130 0 m 130 477 l 130 564 l 217 564 l 217 477 l 130 477 m 304 477 l 304 564 l 391 564 l 391 477 l 304 477 z "},"÷":{"ha":434,"x_min":43,"x_max":391,"o":"m 174 87 l 174 174 l 260 174 l 260 87 l 174 87 m 43 217 l 43 347 l 391 347 l 391 217 l 43 217 m 174 391 l 174 477 l 260 477 l 260 391 l 174 391 z "},"ø":{"ha":521,"x_min":43,"x_max":477,"o":"m 43 0 l 43 43 l 87 43 l 87 0 l 43 0 m 304 130 l 304 217 l 260 217 l 260 260 l 304 260 l 304 304 l 217 304 l 217 217 l 260 217 l 260 174 l 217 174 l 217 130 l 304 130 m 130 0 l 87 43 l 43 87 l 43 347 l 87 391 l 130 434 l 391 434 l 434 391 l 477 347 l 477 87 l 434 43 l 391 0 l 130 0 m 434 391 l 434 434 l 477 434 l 477 391 l 434 391 z "},"ù":{"ha":521,"x_min":43,"x_max":477,"o":"m 130 0 l 87 43 l 43 87 l 43 434 l 217 434 l 217 130 l 304 130 l 304 434 l 477 434 l 477 87 l 434 43 l 391 0 l 130 0 m 217 477 l 174 521 l 130 564 l 260 564 l 304 521 l 347 477 l 217 477 z "},"ú":{"ha":521,"x_min":43,"x_max":477,"o":"m 130 0 l 87 43 l 43 87 l 43 434 l 217 434 l 217 130 l 304 130 l 304 434 l 477 434 l 477 87 l 434 43 l 391 0 l 130 0 m 174 477 l 217 521 l 260 564 l 391 564 l 347 521 l 304 477 l 174 477 z "},"û":{"ha":521,"x_min":43,"x_max":477,"o":"m 130 0 l 87 43 l 43 87 l 43 434 l 217 434 l 217 130 l 304 130 l 304 434 l 477 434 l 477 87 l 434 43 l 391 0 l 130 0 m 87 477 l 130 521 l 174 564 l 347 564 l 391 521 l 434 477 l 304 477 l 260 521 l 217 477 l 87 477 z "},"ü":{"ha":521,"x_min":43,"x_max":477,"o":"m 130 0 l 87 43 l 43 87 l 43 434 l 217 434 l 217 130 l 304 130 l 304 434 l 477 434 l 477 87 l 434 43 l 391 0 l 130 0 m 130 477 l 130 564 l 217 564 l 217 477 l 130 477 m 304 477 l 304 564 l 391 564 l 391 477 l 304 477 z "},"ý":{"ha":521,"x_min":43,"x_max":477,"o":"m 304 -43 l 304 43 l 260 43 l 217 0 l 217 -43 l 304 -43 m 130 -174 l 87 -130 l 43 -87 l 43 0 l 87 43 l 130 43 l 87 87 l 43 130 l 43 434 l 217 434 l 217 174 l 304 174 l 304 434 l 477 434 l 477 -87 l 434 -130 l 391 -174 l 130 -174 m 174 477 l 217 521 l 260 564 l 391 564 l 347 521 l 304 477 l 174 477 z "},"þ":{"ha":564,"x_min":43,"x_max":521,"o":"m 347 174 l 347 347 l 217 347 l 217 174 l 347 174 m 43 -43 l 43 564 l 217 564 l 217 477 l 434 477 l 477 434 l 521 391 l 521 130 l 477 87 l 434 43 l 217 43 l 217 -43 l 43 -43 z "},"ÿ":{"ha":521,"x_min":43,"x_max":477,"o":"m 304 -43 l 304 43 l 260 43 l 217 0 l 217 -43 l 304 -43 m 130 -174 l 87 -130 l 43 -87 l 43 0 l 87 43 l 130 43 l 87 87 l 43 130 l 43 434 l 217 434 l 217 174 l 304 174 l 304 434 l 477 434 l 477 -87 l 434 -130 l 391 -174 l 130 -174 m 130 477 l 130 564 l 217 564 l 217 477 l 130 477 m 304 477 l 304 564 l 391 564 l 391 477 l 304 477 z "},"Ā":{"ha":521,"x_min":43,"x_max":477,"o":"m 304 304 l 304 434 l 217 434 l 217 304 l 304 304 m 43 0 l 43 477 l 87 521 l 130 564 l 391 564 l 434 521 l 477 477 l 477 0 l 304 0 l 304 174 l 217 174 l 217 0 l 43 0 m 130 608 l 130 694 l 391 694 l 391 608 l 130 608 z "},"ā":{"ha":543,"x_min":43,"x_max":499,"o":"m 304 130 l 304 174 l 217 174 l 217 130 l 304 130 m 130 0 l 87 43 l 43 87 l 43 174 l 87 217 l 130 260 l 304 260 l 304 304 l 109 304 l 109 434 l 391 434 l 434 391 l 477 347 l 477 130 l 499 130 l 499 0 l 304 0 l 304 43 l 260 0 l 130 0 m 130 477 l 130 564 l 391 564 l 391 477 l 130 477 z "},"Ă":{"ha":521,"x_min":43,"x_max":477,"o":"m 304 304 l 304 434 l 217 434 l 217 304 l 304 304 m 43 0 l 43 477 l 87 521 l 130 564 l 391 564 l 434 521 l 477 477 l 477 0 l 304 0 l 304 174 l 217 174 l 217 0 l 43 0 m 174 608 l 130 651 l 130 694 l 217 694 l 217 651 l 304 651 l 304 694 l 391 694 l 391 651 l 347 608 l 174 608 z "},"ă":{"ha":543,"x_min":43,"x_max":499,"o":"m 304 130 l 304 174 l 217 174 l 217 130 l 304 130 m 130 0 l 87 43 l 43 87 l 43 174 l 87 217 l 130 260 l 304 260 l 304 304 l 109 304 l 109 434 l 391 434 l 434 391 l 477 347 l 477 130 l 499 130 l 499 0 l 304 0 l 304 43 l 260 0 l 130 0 m 174 477 l 130 521 l 130 564 l 217 564 l 217 521 l 304 521 l 304 564 l 391 564 l 391 521 l 347 477 l 174 477 z "},"Ą":{"ha":521,"x_min":43,"x_max":477,"o":"m 304 304 l 304 434 l 217 434 l 217 304 l 304 304 m 347 -174 l 304 -130 l 304 -43 l 347 0 l 304 0 l 304 174 l 217 174 l 217 0 l 43 0 l 43 477 l 87 521 l 130 564 l 391 564 l 434 521 l 477 477 l 477 0 l 434 0 l 391 -43 l 391 -87 l 434 -87 l 434 -174 l 347 -174 z "},"ą":{"ha":543,"x_min":43,"x_max":499,"o":"m 304 130 l 304 174 l 217 174 l 217 130 l 304 130 m 347 -174 l 304 -130 l 304 -43 l 347 0 l 304 0 l 304 43 l 260 0 l 130 0 l 87 43 l 43 87 l 43 174 l 87 217 l 130 260 l 304 260 l 304 304 l 109 304 l 109 434 l 391 434 l 434 391 l 477 347 l 477 130 l 499 130 l 499 0 l 434 0 l 391 -43 l 391 -87 l 434 -87 l 434 -174 l 347 -174 z "},"Ć":{"ha":521,"x_min":43,"x_max":477,"o":"m 130 0 l 87 43 l 43 87 l 43 477 l 87 521 l 130 564 l 391 564 l 434 521 l 477 477 l 477 347 l 304 347 l 304 434 l 217 434 l 217 130 l 304 130 l 304 217 l 477 217 l 477 87 l 434 43 l 391 0 l 130 0 m 174 608 l 217 651 l 260 694 l 391 694 l 347 651 l 304 608 l 174 608 z "},"ć":{"ha":477,"x_min":43,"x_max":434,"o":"m 130 0 l 87 43 l 43 87 l 43 347 l 87 391 l 130 434 l 434 434 l 434 260 l 260 260 l 260 304 l 217 304 l 217 130 l 434 130 l 434 0 l 130 0 m 174 477 l 217 521 l 260 564 l 391 564 l 347 521 l 304 477 l 174 477 z "},"Ĉ":{"ha":521,"x_min":43,"x_max":477,"o":"m 130 0 l 87 43 l 43 87 l 43 477 l 87 521 l 130 564 l 391 564 l 434 521 l 477 477 l 477 347 l 304 347 l 304 434 l 217 434 l 217 130 l 304 130 l 304 217 l 477 217 l 477 87 l 434 43 l 391 0 l 130 0 m 87 608 l 130 651 l 174 694 l 347 694 l 391 651 l 434 608 l 304 608 l 260 651 l 217 608 l 87 608 z "},"ĉ":{"ha":477,"x_min":43,"x_max":434,"o":"m 130 0 l 87 43 l 43 87 l 43 347 l 87 391 l 130 434 l 434 434 l 434 260 l 260 260 l 260 304 l 217 304 l 217 130 l 434 130 l 434 0 l 130 0 m 87 477 l 130 521 l 174 564 l 347 564 l 391 521 l 434 477 l 304 477 l 260 521 l 217 477 l 87 477 z "},"Ċ":{"ha":521,"x_min":43,"x_max":477,"o":"m 130 0 l 87 43 l 43 87 l 43 477 l 87 521 l 130 564 l 391 564 l 434 521 l 477 477 l 477 347 l 304 347 l 304 434 l 217 434 l 217 130 l 304 130 l 304 217 l 477 217 l 477 87 l 434 43 l 391 0 l 130 0 m 217 608 l 217 694 l 304 694 l 304 608 l 217 608 z "},"ċ":{"ha":477,"x_min":43,"x_max":434,"o":"m 130 0 l 87 43 l 43 87 l 43 347 l 87 391 l 130 434 l 434 434 l 434 260 l 260 260 l 260 304 l 217 304 l 217 130 l 434 130 l 434 0 l 130 0 m 217 477 l 217 564 l 304 564 l 304 477 l 217 477 z "},"Č":{"ha":521,"x_min":43,"x_max":477,"o":"m 130 0 l 87 43 l 43 87 l 43 477 l 87 521 l 130 564 l 391 564 l 434 521 l 477 477 l 477 347 l 304 347 l 304 434 l 217 434 l 217 130 l 304 130 l 304 217 l 477 217 l 477 87 l 434 43 l 391 0 l 130 0 m 174 608 l 130 651 l 87 694 l 217 694 l 260 651 l 304 694 l 434 694 l 391 651 l 347 608 l 174 608 z "},"č":{"ha":477,"x_min":43,"x_max":434,"o":"m 130 0 l 87 43 l 43 87 l 43 347 l 87 391 l 130 434 l 434 434 l 434 260 l 260 260 l 260 304 l 217 304 l 217 130 l 434 130 l 434 0 l 130 0 m 174 477 l 130 521 l 87 564 l 217 564 l 260 521 l 304 564 l 434 564 l 391 521 l 347 477 l 174 477 z "},"Ď":{"ha":521,"x_min":43,"x_max":477,"o":"m 304 130 l 304 434 l 217 434 l 217 130 l 304 130 m 43 0 l 43 564 l 391 564 l 434 521 l 477 477 l 477 87 l 434 43 l 391 0 l 43 0 m 174 608 l 130 651 l 87 694 l 217 694 l 260 651 l 304 694 l 434 694 l 391 651 l 347 608 l 174 608 z "},"ď":{"ha":651,"x_min":43,"x_max":608,"o":"m 304 130 l 304 304 l 217 304 l 217 130 l 304 130 m 564 391 l 564 477 l 521 477 l 521 564 l 608 564 l 608 434 q 594 403 608 415 q 564 391 582 391 l 564 391 m 130 0 l 87 43 l 43 87 l 43 347 l 87 391 l 130 434 l 304 434 l 304 608 l 477 608 l 477 0 l 130 0 z "},"Đ":{"ha":564,"x_min":0,"x_max":521,"o":"m 347 130 l 347 434 l 217 434 l 217 347 l 304 347 l 304 217 l 217 217 l 217 130 l 347 130 m 43 0 l 43 217 l 0 217 l 0 347 l 43 347 l 43 564 l 434 564 l 477 521 l 521 477 l 521 87 l 477 43 l 434 0 l 43 0 z "},"đ":{"ha":608,"x_min":43,"x_max":564,"o":"m 304 130 l 304 304 l 217 304 l 217 130 l 304 130 m 130 0 l 87 43 l 43 87 l 43 347 l 87 391 l 130 434 l 304 434 l 304 477 l 217 477 l 217 564 l 304 564 l 304 608 l 477 608 l 477 564 l 564 564 l 564 477 l 477 477 l 477 0 l 130 0 z "},"Ē":{"ha":477,"x_min":43,"x_max":434,"o":"m 130 0 l 87 43 l 43 87 l 43 477 l 87 521 l 130 564 l 434 564 l 434 434 l 217 434 l 217 369 l 391 369 l 391 239 l 217 239 l 217 130 l 434 130 l 434 0 l 130 0 m 130 608 l 130 694 l 391 694 l 391 608 l 130 608 z "},"ē":{"ha":521,"x_min":43,"x_max":477,"o":"m 304 260 l 304 304 l 217 304 l 217 260 l 304 260 m 130 0 l 87 43 l 43 87 l 43 347 l 87 391 l 130 434 l 391 434 l 434 391 l 477 347 l 477 174 l 217 174 l 217 130 l 477 130 l 477 0 l 130 0 m 130 477 l 130 564 l 391 564 l 391 477 l 130 477 z "},"Ĕ":{"ha":477,"x_min":43,"x_max":434,"o":"m 130 0 l 87 43 l 43 87 l 43 477 l 87 521 l 130 564 l 434 564 l 434 434 l 217 434 l 217 369 l 391 369 l 391 239 l 217 239 l 217 130 l 434 130 l 434 0 l 130 0 m 174 608 l 130 651 l 130 694 l 217 694 l 217 651 l 304 651 l 304 694 l 391 694 l 391 651 l 347 608 l 174 608 z "},"ĕ":{"ha":521,"x_min":43,"x_max":477,"o":"m 304 260 l 304 304 l 217 304 l 217 260 l 304 260 m 130 0 l 87 43 l 43 87 l 43 347 l 87 391 l 130 434 l 391 434 l 434 391 l 477 347 l 477 174 l 217 174 l 217 130 l 477 130 l 477 0 l 130 0 m 174 477 l 130 521 l 130 564 l 217 564 l 217 521 l 304 521 l 304 564 l 391 564 l 391 521 l 347 477 l 174 477 z "},"Ė":{"ha":477,"x_min":43,"x_max":434,"o":"m 130 0 l 87 43 l 43 87 l 43 477 l 87 521 l 130 564 l 434 564 l 434 434 l 217 434 l 217 369 l 391 369 l 391 239 l 217 239 l 217 130 l 434 130 l 434 0 l 130 0 m 217 608 l 217 694 l 304 694 l 304 608 l 217 608 z "},"ė":{"ha":521,"x_min":43,"x_max":477,"o":"m 304 260 l 304 304 l 217 304 l 217 260 l 304 260 m 130 0 l 87 43 l 43 87 l 43 347 l 87 391 l 130 434 l 391 434 l 434 391 l 477 347 l 477 174 l 217 174 l 217 130 l 477 130 l 477 0 l 130 0 m 217 477 l 217 564 l 304 564 l 304 477 l 217 477 z "},"Ę":{"ha":477,"x_min":43,"x_max":434,"o":"m 347 -174 l 304 -130 l 304 -43 l 347 0 l 130 0 l 87 43 l 43 87 l 43 477 l 87 521 l 130 564 l 434 564 l 434 434 l 217 434 l 217 369 l 391 369 l 391 239 l 217 239 l 217 130 l 434 130 l 434 0 l 391 -43 l 391 -87 l 434 -87 l 434 -174 l 347 -174 z "},"ę":{"ha":521,"x_min":43,"x_max":477,"o":"m 304 260 l 304 304 l 217 304 l 217 260 l 304 260 m 347 -174 l 304 -130 l 304 -43 l 347 0 l 130 0 l 87 43 l 43 87 l 43 347 l 87 391 l 130 434 l 391 434 l 434 391 l 477 347 l 477 174 l 217 174 l 217 130 l 477 130 l 477 0 l 434 0 l 391 -43 l 391 -87 l 434 -87 l 434 -174 l 347 -174 z "},"Ě":{"ha":477,"x_min":43,"x_max":434,"o":"m 130 0 l 87 43 l 43 87 l 43 477 l 87 521 l 130 564 l 434 564 l 434 434 l 217 434 l 217 369 l 391 369 l 391 239 l 217 239 l 217 130 l 434 130 l 434 0 l 130 0 m 174 608 l 130 651 l 87 694 l 217 694 l 260 651 l 304 694 l 434 694 l 391 651 l 347 608 l 174 608 z "},"ě":{"ha":521,"x_min":43,"x_max":477,"o":"m 304 260 l 304 304 l 217 304 l 217 260 l 304 260 m 130 0 l 87 43 l 43 87 l 43 347 l 87 391 l 130 434 l 391 434 l 434 391 l 477 347 l 477 174 l 217 174 l 217 130 l 477 130 l 477 0 l 130 0 m 174 477 l 130 521 l 87 564 l 217 564 l 260 521 l 304 564 l 434 564 l 391 521 l 347 477 l 174 477 z "},"Ĝ":{"ha":521,"x_min":43,"x_max":477,"o":"m 130 0 l 87 43 l 43 87 l 43 477 l 87 521 l 130 564 l 391 564 l 434 521 l 477 477 l 477 391 l 304 391 l 304 434 l 217 434 l 217 130 l 304 130 l 304 217 l 260 217 l 260 347 l 477 347 l 477 0 l 130 0 m 87 608 l 130 651 l 174 694 l 347 694 l 391 651 l 434 608 l 304 608 l 260 651 l 217 608 l 87 608 z "},"ĝ":{"ha":521,"x_min":43,"x_max":477,"o":"m 304 -43 l 304 43 l 260 43 l 217 0 l 217 -43 l 304 -43 m 304 174 l 304 304 l 217 304 l 217 174 l 304 174 m 130 -174 l 87 -130 l 43 -87 l 43 0 l 87 43 l 130 43 l 87 87 l 43 130 l 43 347 l 87 391 l 130 434 l 477 434 l 477 -87 l 434 -130 l 391 -174 l 130 -174 m 87 477 l 130 521 l 174 564 l 347 564 l 391 521 l 434 477 l 304 477 l 260 521 l 217 477 l 87 477 z "},"Ğ":{"ha":521,"x_min":43,"x_max":477,"o":"m 130 0 l 87 43 l 43 87 l 43 477 l 87 521 l 130 564 l 391 564 l 434 521 l 477 477 l 477 391 l 304 391 l 304 434 l 217 434 l 217 130 l 304 130 l 304 217 l 260 217 l 260 347 l 477 347 l 477 0 l 130 0 m 174 608 l 130 651 l 130 694 l 217 694 l 217 651 l 304 651 l 304 694 l 391 694 l 391 651 l 347 608 l 174 608 z "},"ğ":{"ha":521,"x_min":43,"x_max":477,"o":"m 304 -43 l 304 43 l 260 43 l 217 0 l 217 -43 l 304 -43 m 304 174 l 304 304 l 217 304 l 217 174 l 304 174 m 130 -174 l 87 -130 l 43 -87 l 43 0 l 87 43 l 130 43 l 87 87 l 43 130 l 43 347 l 87 391 l 130 434 l 477 434 l 477 -87 l 434 -130 l 391 -174 l 130 -174 m 174 477 l 130 521 l 130 564 l 217 564 l 217 521 l 304 521 l 304 564 l 391 564 l 391 521 l 347 477 l 174 477 z "},"Ġ":{"ha":521,"x_min":43,"x_max":477,"o":"m 130 0 l 87 43 l 43 87 l 43 477 l 87 521 l 130 564 l 391 564 l 434 521 l 477 477 l 477 391 l 304 391 l 304 434 l 217 434 l 217 130 l 304 130 l 304 217 l 260 217 l 260 347 l 477 347 l 477 0 l 130 0 m 217 608 l 217 694 l 304 694 l 304 608 l 217 608 z "},"ġ":{"ha":521,"x_min":43,"x_max":477,"o":"m 304 -43 l 304 43 l 260 43 l 217 0 l 217 -43 l 304 -43 m 304 174 l 304 304 l 217 304 l 217 174 l 304 174 m 130 -174 l 87 -130 l 43 -87 l 43 0 l 87 43 l 130 43 l 87 87 l 43 130 l 43 347 l 87 391 l 130 434 l 477 434 l 477 -87 l 434 -130 l 391 -174 l 130 -174 m 217 477 l 217 564 l 304 564 l 304 477 l 217 477 z "},"Ģ":{"ha":521,"x_min":43,"x_max":477,"o":"m 217 -174 l 217 -130 l 304 -130 l 304 -87 l 217 -87 l 217 -43 l 260 0 l 260 -43 l 304 -43 l 347 -87 l 347 -130 l 304 -174 l 217 -174 m 130 0 l 87 43 l 43 87 l 43 477 l 87 521 l 130 564 l 391 564 l 434 521 l 477 477 l 477 391 l 304 391 l 304 434 l 217 434 l 217 130 l 304 130 l 304 217 l 260 217 l 260 347 l 477 347 l 477 0 l 130 0 z "},"ģ":{"ha":521,"x_min":43,"x_max":477,"o":"m 304 -43 l 304 43 l 260 43 l 217 0 l 217 -43 l 304 -43 m 304 174 l 304 304 l 217 304 l 217 174 l 304 174 m 130 -174 l 87 -130 l 43 -87 l 43 0 l 87 43 l 130 43 l 87 87 l 43 130 l 43 347 l 87 391 l 130 434 l 477 434 l 477 -87 l 434 -130 l 391 -174 l 130 -174 m 217 477 l 217 651 q 229 681 217 669 q 260 694 241 694 l 304 694 l 304 608 l 347 608 l 347 477 l 217 477 z "},"Ĥ":{"ha":521,"x_min":43,"x_max":477,"o":"m 43 0 l 43 564 l 217 564 l 217 347 l 304 347 l 304 564 l 477 564 l 477 0 l 304 0 l 304 217 l 217 217 l 217 0 l 43 0 m 87 608 l 130 651 l 174 694 l 347 694 l 391 651 l 434 608 l 304 608 l 260 651 l 217 608 l 87 608 z "},"ĥ":{"ha":521,"x_min":-43,"x_max":477,"o":"m 43 0 l 43 564 l 217 564 l 217 434 l 391 434 l 434 391 l 477 347 l 477 0 l 304 0 l 304 304 l 217 304 l 217 0 l 43 0 m -43 608 l 0 651 l 43 694 l 217 694 l 260 651 l 304 608 l 174 608 l 130 651 l 87 608 l -43 608 z "},"Ħ":{"ha":564,"x_min":0,"x_max":521,"o":"m 304 347 l 304 391 l 217 391 l 217 347 l 304 347 m 43 0 l 43 391 l 0 391 l 0 477 l 43 477 l 43 564 l 217 564 l 217 477 l 304 477 l 304 564 l 477 564 l 477 477 l 521 477 l 521 391 l 477 391 l 477 0 l 304 0 l 304 217 l 217 217 l 217 0 l 43 0 z "},"ħ":{"ha":521,"x_min":0,"x_max":477,"o":"m 43 0 l 43 456 l 0 456 l 0 543 l 43 543 l 43 564 l 217 564 l 217 543 l 260 543 l 260 456 l 217 456 l 217 434 l 391 434 l 434 391 l 477 347 l 477 0 l 304 0 l 304 304 l 217 304 l 217 0 l 43 0 z "},"Ĩ":{"ha":260,"x_min":22,"x_max":239,"o":"m 43 0 l 43 564 l 217 564 l 217 0 l 43 0 m 22 586 l 22 651 l 65 651 l 65 673 l 152 673 l 152 651 l 195 651 l 195 673 l 239 673 l 239 608 l 195 608 l 195 586 l 109 586 l 109 608 l 65 608 l 65 586 l 22 586 z "},"ĩ":{"ha":260,"x_min":22,"x_max":239,"o":"m 43 0 l 43 434 l 217 434 l 217 0 l 43 0 m 22 456 l 22 521 l 65 521 l 65 543 l 152 543 l 152 521 l 195 521 l 195 543 l 239 543 l 239 477 l 195 477 l 195 456 l 109 456 l 109 477 l 65 477 l 65 456 l 22 456 z "},"Ī":{"ha":304,"x_min":0,"x_max":260,"o":"m 43 0 l 43 564 l 217 564 l 217 0 l 43 0 m 0 608 l 0 694 l 260 694 l 260 608 l 0 608 z "},"ī":{"ha":304,"x_min":0,"x_max":260,"o":"m 43 0 l 43 434 l 217 434 l 217 0 l 43 0 m 0 477 l 0 564 l 260 564 l 260 477 l 0 477 z "},"Ĭ":{"ha":304,"x_min":0,"x_max":260,"o":"m 43 0 l 43 564 l 217 564 l 217 0 l 43 0 m 43 608 l 0 651 l 0 694 l 87 694 l 87 651 l 174 651 l 174 694 l 260 694 l 260 651 l 217 608 l 43 608 z "},"ĭ":{"ha":304,"x_min":0,"x_max":260,"o":"m 43 0 l 43 434 l 217 434 l 217 0 l 43 0 m 43 477 l 0 521 l 0 564 l 87 564 l 87 521 l 174 521 l 174 564 l 260 564 l 260 521 l 217 477 l 43 477 z "},"Į":{"ha":260,"x_min":43,"x_max":217,"o":"m 130 -174 l 87 -130 l 87 -43 l 130 0 l 43 0 l 43 564 l 217 564 l 217 0 l 174 -43 l 174 -87 l 217 -87 l 217 -174 l 130 -174 z "},"į":{"ha":260,"x_min":43,"x_max":217,"o":"m 130 -174 l 87 -130 l 87 -43 l 130 0 l 43 0 l 43 434 l 217 434 l 217 0 l 174 -43 l 174 -87 l 217 -87 l 217 -174 l 130 -174 m 43 477 l 43 564 l 217 564 l 217 477 l 43 477 z "},"İ":{"ha":260,"x_min":43,"x_max":217,"o":"m 43 0 l 43 564 l 217 564 l 217 0 l 43 0 m 43 608 l 43 694 l 217 694 l 217 608 l 43 608 z "},"ı":{"ha":260,"x_min":43,"x_max":217,"o":"m 43 0 l 43 434 l 217 434 l 217 0 l 43 0 z "},"Ĳ":{"ha":564,"x_min":43,"x_max":521,"o":"m 130 0 l 87 43 l 43 87 l 43 564 l 217 564 l 217 130 l 347 130 l 347 434 l 260 434 l 260 564 l 521 564 l 521 87 l 477 43 l 434 0 l 130 0 z "},"ĳ":{"ha":521,"x_min":43,"x_max":477,"o":"m 43 -43 l 43 434 l 217 434 l 217 -43 l 43 -43 m 217 -174 l 217 -43 l 304 -43 l 304 434 l 477 434 l 477 -87 l 434 -130 l 391 -174 l 217 -174 m 43 477 l 43 564 l 217 564 l 217 477 l 43 477 m 304 477 l 304 564 l 477 564 l 477 477 l 304 477 z "},"Ĵ":{"ha":521,"x_min":43,"x_max":477,"o":"m 130 0 l 87 43 l 43 87 l 43 304 l 217 304 l 217 130 l 304 130 l 304 434 l 130 434 l 130 564 l 477 564 l 477 87 l 434 43 l 391 0 l 130 0 m 130 608 l 174 651 l 217 694 l 391 694 l 434 651 l 477 608 l 347 608 l 304 651 l 260 608 l 130 608 z "},"ĵ":{"ha":347,"x_min":-43,"x_max":304,"o":"m 0 -174 l 0 -43 l 43 -43 l 43 434 l 217 434 l 217 -87 l 174 -130 l 130 -174 l 0 -174 m -43 477 l 0 521 l 43 564 l 217 564 l 260 521 l 304 477 l 174 477 l 130 521 l 87 477 l -43 477 z "},"Ķ":{"ha":521,"x_min":43,"x_max":477,"o":"m 217 -174 l 217 -130 l 304 -130 l 304 -87 l 217 -87 l 217 -43 l 260 0 l 260 -43 l 304 -43 l 347 -87 l 347 -130 l 304 -174 l 217 -174 m 43 0 l 43 564 l 217 564 l 217 391 l 304 391 l 304 564 l 477 564 l 477 391 l 434 347 l 477 304 l 477 0 l 304 0 l 304 260 l 217 260 l 217 0 l 43 0 z "},"ķ":{"ha":521,"x_min":43,"x_max":477,"o":"m 217 -174 l 217 -130 l 304 -130 l 304 -87 l 217 -87 l 217 -43 l 260 0 l 260 -43 l 304 -43 l 347 -87 l 347 -130 l 304 -174 l 217 -174 m 260 260 l 304 304 l 217 304 l 217 260 l 260 260 m 43 0 l 43 608 l 217 608 l 217 434 l 434 434 l 477 391 l 477 304 l 434 260 l 477 217 l 477 0 l 304 0 l 304 130 l 217 130 l 217 0 l 43 0 z "},"ĸ":{"ha":521,"x_min":43,"x_max":477,"o":"m 43 0 l 43 434 l 217 434 l 217 282 l 304 282 l 304 434 l 477 434 l 477 260 l 434 217 l 477 174 l 477 0 l 304 0 l 304 152 l 217 152 l 217 0 l 43 0 z "},"Ĺ":{"ha":434,"x_min":43,"x_max":391,"o":"m 130 0 l 87 43 l 43 87 l 43 564 l 217 564 l 217 130 l 391 130 l 391 0 l 130 0 m 43 608 l 87 651 l 130 694 l 260 694 l 217 651 l 174 608 l 43 608 z "},"ĺ":{"ha":304,"x_min":43,"x_max":260,"o":"m 130 0 l 87 43 l 43 87 l 43 608 l 217 608 l 217 130 l 260 130 l 260 0 l 130 0 m 43 651 l 87 694 l 130 738 l 260 738 l 217 694 l 174 651 l 43 651 z "},"Ļ":{"ha":434,"x_min":43,"x_max":391,"o":"m 217 -174 l 217 -130 l 304 -130 l 304 -87 l 217 -87 l 217 -43 l 260 0 l 260 -43 l 304 -43 l 347 -87 l 347 -130 l 304 -174 l 217 -174 m 130 0 l 87 43 l 43 87 l 43 564 l 217 564 l 217 130 l 391 130 l 391 0 l 130 0 z "},"ļ":{"ha":304,"x_min":43,"x_max":260,"o":"m 130 -174 l 130 -130 l 217 -130 l 217 -87 l 130 -87 l 130 -43 l 174 0 l 174 -43 l 217 -43 l 260 -87 l 260 -130 l 217 -174 l 130 -174 m 130 0 l 87 43 l 43 87 l 43 608 l 217 608 l 217 130 l 260 130 l 260 0 l 130 0 z "},"Ľ":{"ha":434,"x_min":43,"x_max":391,"o":"m 130 0 l 87 43 l 43 87 l 43 564 l 217 564 l 217 130 l 391 130 l 391 0 l 130 0 m 304 391 l 304 477 l 260 477 l 260 564 l 347 564 l 347 434 q 334 403 347 415 q 304 391 321 391 l 304 391 z "},"ľ":{"ha":391,"x_min":43,"x_max":347,"o":"m 304 391 l 304 477 l 260 477 l 260 564 l 347 564 l 347 434 q 334 403 347 415 q 304 391 321 391 l 304 391 m 130 0 l 87 43 l 43 87 l 43 608 l 217 608 l 217 130 l 260 130 l 260 0 l 130 0 z "},"Ŀ":{"ha":434,"x_min":43,"x_max":391,"o":"m 260 260 l 260 347 l 347 347 l 347 260 l 260 260 m 130 0 l 87 43 l 43 87 l 43 564 l 217 564 l 217 130 l 391 130 l 391 0 l 130 0 z "},"ŀ":{"ha":391,"x_min":43,"x_max":347,"o":"m 260 260 l 260 347 l 347 347 l 347 260 l 260 260 m 130 0 l 87 43 l 43 87 l 43 608 l 217 608 l 217 130 l 260 130 l 260 0 l 130 0 z "},"Ł":{"ha":434,"x_min":0,"x_max":391,"o":"m 130 0 l 87 43 l 43 87 l 43 217 l 0 174 l 0 260 l 43 304 l 43 564 l 217 564 l 217 477 l 260 521 l 260 434 l 217 391 l 217 130 l 391 130 l 391 0 l 130 0 z "},"ł":{"ha":304,"x_min":0,"x_max":260,"o":"m 130 0 l 87 43 l 43 87 l 43 217 l 0 174 l 0 260 l 43 304 l 43 608 l 217 608 l 217 477 l 260 521 l 260 434 l 217 391 l 217 130 l 260 130 l 260 0 l 130 0 z "},"Ń":{"ha":521,"x_min":43,"x_max":477,"o":"m 43 0 l 43 477 l 87 521 l 130 564 l 391 564 l 434 521 l 477 477 l 477 0 l 304 0 l 304 434 l 217 434 l 217 0 l 43 0 m 174 608 l 217 651 l 260 694 l 391 694 l 347 651 l 304 608 l 174 608 z "},"ń":{"ha":521,"x_min":43,"x_max":477,"o":"m 43 0 l 43 347 l 87 391 l 130 434 l 391 434 l 434 391 l 477 347 l 477 0 l 304 0 l 304 304 l 217 304 l 217 0 l 43 0 m 174 477 l 217 521 l 260 564 l 391 564 l 347 521 l 304 477 l 174 477 z "},"Ņ":{"ha":521,"x_min":43,"x_max":477,"o":"m 217 -174 l 217 -130 l 304 -130 l 304 -87 l 217 -87 l 217 -43 l 260 0 l 260 -43 l 304 -43 l 347 -87 l 347 -130 l 304 -174 l 217 -174 m 43 0 l 43 477 l 87 521 l 130 564 l 391 564 l 434 521 l 477 477 l 477 0 l 304 0 l 304 434 l 217 434 l 217 0 l 43 0 z "},"ņ":{"ha":521,"x_min":43,"x_max":477,"o":"m 217 -174 l 217 -130 l 304 -130 l 304 -87 l 217 -87 l 217 -43 l 260 0 l 260 -43 l 304 -43 l 347 -87 l 347 -130 l 304 -174 l 217 -174 m 43 0 l 43 347 l 87 391 l 130 434 l 391 434 l 434 391 l 477 347 l 477 0 l 304 0 l 304 304 l 217 304 l 217 0 l 43 0 z "},"Ň":{"ha":521,"x_min":43,"x_max":477,"o":"m 43 0 l 43 477 l 87 521 l 130 564 l 391 564 l 434 521 l 477 477 l 477 0 l 304 0 l 304 434 l 217 434 l 217 0 l 43 0 m 174 608 l 130 651 l 87 694 l 217 694 l 260 651 l 304 694 l 434 694 l 391 651 l 347 608 l 174 608 z "},"ň":{"ha":521,"x_min":43,"x_max":477,"o":"m 43 0 l 43 347 l 87 391 l 130 434 l 391 434 l 434 391 l 477 347 l 477 0 l 304 0 l 304 304 l 217 304 l 217 0 l 43 0 m 174 477 l 130 521 l 87 564 l 217 564 l 260 521 l 304 564 l 434 564 l 391 521 l 347 477 l 174 477 z "},"ŉ":{"ha":673,"x_min":65,"x_max":651,"o":"m 217 0 l 217 347 l 260 391 l 304 434 l 564 434 l 608 391 l 651 347 l 651 0 l 477 0 l 477 304 l 391 304 l 391 0 l 217 0 m 87 347 l 87 477 l 65 477 l 65 564 l 174 564 l 174 391 q 160 359 174 372 q 130 347 148 347 l 87 347 z "},"Ŋ":{"ha":521,"x_min":43,"x_max":477,"o":"m 217 -174 l 217 -43 l 304 -43 l 304 434 l 217 434 l 217 0 l 43 0 l 43 477 l 87 521 l 130 564 l 391 564 l 434 521 l 477 477 l 477 -87 l 434 -130 l 391 -174 l 217 -174 z "},"ŋ":{"ha":521,"x_min":43,"x_max":477,"o":"m 217 -174 l 217 -43 l 304 -43 l 304 304 l 217 304 l 217 0 l 43 0 l 43 347 l 87 391 l 130 434 l 391 434 l 434 391 l 477 347 l 477 -87 l 434 -130 l 391 -174 l 217 -174 z "},"Ō":{"ha":521,"x_min":43,"x_max":477,"o":"m 304 130 l 304 434 l 217 434 l 217 130 l 304 130 m 130 0 l 87 43 l 43 87 l 43 477 l 87 521 l 130 564 l 391 564 l 434 521 l 477 477 l 477 87 l 434 43 l 391 0 l 130 0 m 130 608 l 130 694 l 391 694 l 391 608 l 130 608 z "},"ō":{"ha":521,"x_min":43,"x_max":477,"o":"m 304 130 l 304 304 l 217 304 l 217 130 l 304 130 m 130 0 l 87 43 l 43 87 l 43 347 l 87 391 l 130 434 l 391 434 l 434 391 l 477 347 l 477 87 l 434 43 l 391 0 l 130 0 m 130 477 l 130 564 l 391 564 l 391 477 l 130 477 z "},"Ŏ":{"ha":521,"x_min":43,"x_max":477,"o":"m 304 130 l 304 434 l 217 434 l 217 130 l 304 130 m 130 0 l 87 43 l 43 87 l 43 477 l 87 521 l 130 564 l 391 564 l 434 521 l 477 477 l 477 87 l 434 43 l 391 0 l 130 0 m 174 608 l 130 651 l 130 694 l 217 694 l 217 651 l 304 651 l 304 694 l 391 694 l 391 651 l 347 608 l 174 608 z "},"ŏ":{"ha":521,"x_min":43,"x_max":477,"o":"m 304 130 l 304 304 l 217 304 l 217 130 l 304 130 m 130 0 l 87 43 l 43 87 l 43 347 l 87 391 l 130 434 l 391 434 l 434 391 l 477 347 l 477 87 l 434 43 l 391 0 l 130 0 m 174 477 l 130 521 l 130 564 l 217 564 l 217 521 l 304 521 l 304 564 l 391 564 l 391 521 l 347 477 l 174 477 z "},"Ő":{"ha":521,"x_min":43,"x_max":477,"o":"m 304 130 l 304 434 l 217 434 l 217 130 l 304 130 m 130 0 l 87 43 l 43 87 l 43 477 l 87 521 l 130 564 l 391 564 l 434 521 l 477 477 l 477 87 l 434 43 l 391 0 l 130 0 m 87 608 l 130 651 l 174 694 l 304 694 l 260 651 l 217 608 l 87 608 m 260 608 l 304 651 l 347 694 l 477 694 l 434 651 l 391 608 l 260 608 z "},"ő":{"ha":521,"x_min":43,"x_max":477,"o":"m 304 130 l 304 304 l 217 304 l 217 130 l 304 130 m 130 0 l 87 43 l 43 87 l 43 347 l 87 391 l 130 434 l 391 434 l 434 391 l 477 347 l 477 87 l 434 43 l 391 0 l 130 0 m 87 477 l 130 521 l 174 564 l 304 564 l 260 521 l 217 477 l 87 477 m 260 477 l 304 521 l 347 564 l 477 564 l 434 521 l 391 477 l 260 477 z "},"Œ":{"ha":738,"x_min":43,"x_max":694,"o":"m 304 130 l 304 434 l 217 434 l 217 130 l 304 130 m 130 0 l 87 43 l 43 87 l 43 477 l 87 521 l 130 564 l 694 564 l 694 434 l 477 434 l 477 369 l 608 369 l 608 239 l 477 239 l 477 130 l 694 130 l 694 0 l 130 0 z "},"œ":{"ha":781,"x_min":43,"x_max":738,"o":"m 304 130 l 304 304 l 217 304 l 217 130 l 304 130 m 564 260 l 564 304 l 477 304 l 477 260 l 564 260 m 130 0 l 87 43 l 43 87 l 43 347 l 87 391 l 130 434 l 651 434 l 694 391 l 738 347 l 738 174 l 477 174 l 477 130 l 738 130 l 738 0 l 130 0 z "},"Ŕ":{"ha":521,"x_min":43,"x_max":477,"o":"m 304 304 l 304 434 l 217 434 l 217 304 l 304 304 m 43 0 l 43 564 l 391 564 l 434 521 l 477 477 l 477 347 l 434 304 l 477 260 l 477 0 l 304 0 l 304 174 l 217 174 l 217 0 l 43 0 m 174 608 l 217 651 l 260 694 l 391 694 l 347 651 l 304 608 l 174 608 z "},"ŕ":{"ha":347,"x_min":43,"x_max":304,"o":"m 43 0 l 43 347 l 87 391 l 130 434 l 304 434 l 304 304 l 217 304 l 217 0 l 43 0 m 87 477 l 130 521 l 174 564 l 304 564 l 260 521 l 217 477 l 87 477 z "},"Ŗ":{"ha":521,"x_min":43,"x_max":477,"o":"m 217 -174 l 217 -130 l 304 -130 l 304 -87 l 217 -87 l 217 -43 l 260 0 l 260 -43 l 304 -43 l 347 -87 l 347 -130 l 304 -174 l 217 -174 m 304 304 l 304 434 l 217 434 l 217 304 l 304 304 m 43 0 l 43 564 l 391 564 l 434 521 l 477 477 l 477 347 l 434 304 l 477 260 l 477 0 l 304 0 l 304 174 l 217 174 l 217 0 l 43 0 z "},"ŗ":{"ha":347,"x_min":43,"x_max":304,"o":"m 87 -174 l 87 -130 l 174 -130 l 174 -87 l 87 -87 l 87 -43 l 130 0 l 130 -43 l 174 -43 l 217 -87 l 217 -130 l 174 -174 l 87 -174 m 43 0 l 43 347 l 87 391 l 130 434 l 304 434 l 304 304 l 217 304 l 217 0 l 43 0 z "},"Ř":{"ha":521,"x_min":43,"x_max":477,"o":"m 304 304 l 304 434 l 217 434 l 217 304 l 304 304 m 43 0 l 43 564 l 391 564 l 434 521 l 477 477 l 477 347 l 434 304 l 477 260 l 477 0 l 304 0 l 304 174 l 217 174 l 217 0 l 43 0 m 174 608 l 130 651 l 87 694 l 217 694 l 260 651 l 304 694 l 434 694 l 391 651 l 347 608 l 174 608 z "},"ř":{"ha":391,"x_min":0,"x_max":347,"o":"m 43 0 l 43 347 l 87 391 l 130 434 l 304 434 l 304 304 l 217 304 l 217 0 l 43 0 m 87 477 l 43 521 l 0 564 l 130 564 l 174 521 l 217 564 l 347 564 l 304 521 l 260 477 l 87 477 z "},"Ś":{"ha":521,"x_min":43,"x_max":477,"o":"m 130 0 l 87 43 l 43 87 l 43 174 l 217 174 l 217 130 l 304 130 l 304 217 l 130 217 l 87 260 l 43 304 l 43 477 l 87 521 l 130 564 l 391 564 l 434 521 l 477 477 l 477 391 l 304 391 l 304 434 l 217 434 l 217 347 l 391 347 l 434 304 l 477 260 l 477 87 l 434 43 l 391 0 l 130 0 m 174 608 l 217 651 l 260 694 l 391 694 l 347 651 l 304 608 l 174 608 z "},"ś":{"ha":477,"x_min":43,"x_max":434,"o":"m 43 0 l 43 130 l 260 130 l 260 174 l 130 174 l 87 217 l 43 260 l 43 347 l 87 391 l 130 434 l 434 434 l 434 304 l 217 304 l 217 260 l 347 260 l 391 217 l 434 174 l 434 87 l 391 43 l 347 0 l 43 0 m 174 477 l 217 521 l 260 564 l 391 564 l 347 521 l 304 477 l 174 477 z "},"Ŝ":{"ha":521,"x_min":43,"x_max":477,"o":"m 130 0 l 87 43 l 43 87 l 43 174 l 217 174 l 217 130 l 304 130 l 304 217 l 130 217 l 87 260 l 43 304 l 43 477 l 87 521 l 130 564 l 391 564 l 434 521 l 477 477 l 477 391 l 304 391 l 304 434 l 217 434 l 217 347 l 391 347 l 434 304 l 477 260 l 477 87 l 434 43 l 391 0 l 130 0 m 87 608 l 130 651 l 174 694 l 347 694 l 391 651 l 434 608 l 304 608 l 260 651 l 217 608 l 87 608 z "},"ŝ":{"ha":477,"x_min":43,"x_max":434,"o":"m 43 0 l 43 130 l 260 130 l 260 174 l 130 174 l 87 217 l 43 260 l 43 347 l 87 391 l 130 434 l 434 434 l 434 304 l 217 304 l 217 260 l 347 260 l 391 217 l 434 174 l 434 87 l 391 43 l 347 0 l 43 0 m 87 477 l 130 521 l 174 564 l 347 564 l 391 521 l 434 477 l 304 477 l 260 521 l 217 477 l 87 477 z "},"Ş":{"ha":521,"x_min":43,"x_max":477,"o":"m 217 -174 l 217 -130 l 304 -130 l 304 -87 l 217 -87 l 217 -43 l 260 0 l 260 -43 l 304 -43 l 347 -87 l 347 -130 l 304 -174 l 217 -174 m 130 0 l 87 43 l 43 87 l 43 174 l 217 174 l 217 130 l 304 130 l 304 217 l 130 217 l 87 260 l 43 304 l 43 477 l 87 521 l 130 564 l 391 564 l 434 521 l 477 477 l 477 391 l 304 391 l 304 434 l 217 434 l 217 347 l 391 347 l 434 304 l 477 260 l 477 87 l 434 43 l 391 0 l 130 0 z "},"ş":{"ha":477,"x_min":43,"x_max":434,"o":"m 174 -174 l 174 -130 l 260 -130 l 260 -87 l 174 -87 l 174 -43 l 217 0 l 217 -43 l 260 -43 l 304 -87 l 304 -130 l 260 -174 l 174 -174 m 43 0 l 43 130 l 260 130 l 260 174 l 130 174 l 87 217 l 43 260 l 43 347 l 87 391 l 130 434 l 434 434 l 434 304 l 217 304 l 217 260 l 347 260 l 391 217 l 434 174 l 434 87 l 391 43 l 347 0 l 43 0 z "},"Š":{"ha":521,"x_min":43,"x_max":477,"o":"m 130 0 l 87 43 l 43 87 l 43 174 l 217 174 l 217 130 l 304 130 l 304 217 l 130 217 l 87 260 l 43 304 l 43 477 l 87 521 l 130 564 l 391 564 l 434 521 l 477 477 l 477 391 l 304 391 l 304 434 l 217 434 l 217 347 l 391 347 l 434 304 l 477 260 l 477 87 l 434 43 l 391 0 l 130 0 m 174 608 l 130 651 l 87 694 l 217 694 l 260 651 l 304 694 l 434 694 l 391 651 l 347 608 l 174 608 z "},"š":{"ha":477,"x_min":43,"x_max":434,"o":"m 43 0 l 43 130 l 260 130 l 260 174 l 130 174 l 87 217 l 43 260 l 43 347 l 87 391 l 130 434 l 434 434 l 434 304 l 217 304 l 217 260 l 347 260 l 391 217 l 434 174 l 434 87 l 391 43 l 347 0 l 43 0 m 174 477 l 130 521 l 87 564 l 217 564 l 260 521 l 304 564 l 434 564 l 391 521 l 347 477 l 174 477 z "},"Ţ":{"ha":521,"x_min":43,"x_max":477,"o":"m 217 -174 l 217 -130 l 304 -130 l 304 -87 l 217 -87 l 217 -43 l 260 0 l 260 -43 l 304 -43 l 347 -87 l 347 -130 l 304 -174 l 217 -174 m 174 0 l 174 434 l 43 434 l 43 564 l 477 564 l 477 434 l 347 434 l 347 0 l 174 0 z "},"ţ":{"ha":347,"x_min":43,"x_max":304,"o":"m 130 -174 l 130 -130 l 217 -130 l 217 -87 l 130 -87 l 130 -43 l 174 0 l 174 -43 l 217 -43 l 260 -87 l 260 -130 l 217 -174 l 130 -174 m 130 0 l 87 43 l 43 87 l 43 564 l 217 564 l 217 434 l 304 434 l 304 304 l 217 304 l 217 130 l 304 130 l 304 0 l 130 0 z "},"Ť":{"ha":521,"x_min":43,"x_max":477,"o":"m 174 0 l 174 434 l 43 434 l 43 564 l 477 564 l 477 434 l 347 434 l 347 0 l 174 0 m 174 608 l 130 651 l 87 694 l 217 694 l 260 651 l 304 694 l 434 694 l 391 651 l 347 608 l 174 608 z "},"ť":{"ha":347,"x_min":43,"x_max":304,"o":"m 130 0 l 87 43 l 43 87 l 43 564 l 217 564 l 217 434 l 304 434 l 304 304 l 217 304 l 217 130 l 304 130 l 304 0 l 130 0 z "},"Ŧ":{"ha":521,"x_min":43,"x_max":477,"o":"m 174 0 l 174 217 l 87 217 l 87 347 l 174 347 l 174 434 l 43 434 l 43 564 l 477 564 l 477 434 l 347 434 l 347 347 l 434 347 l 434 217 l 347 217 l 347 0 l 174 0 z "},"ŧ":{"ha":347,"x_min":43,"x_max":304,"o":"m 130 0 l 87 43 l 43 87 l 43 564 l 217 564 l 217 434 l 304 434 l 304 304 l 217 304 l 217 260 l 304 260 l 304 174 l 217 174 l 217 130 l 304 130 l 304 0 l 130 0 z "},"Ũ":{"ha":521,"x_min":43,"x_max":477,"o":"m 130 0 l 87 43 l 43 87 l 43 564 l 217 564 l 217 130 l 304 130 l 304 564 l 477 564 l 477 87 l 434 43 l 391 0 l 130 0 m 152 629 l 152 694 l 195 694 l 195 716 l 282 716 l 282 694 l 326 694 l 326 716 l 369 716 l 369 651 l 326 651 l 326 629 l 239 629 l 239 651 l 195 651 l 195 629 l 152 629 z "},"ũ":{"ha":521,"x_min":43,"x_max":477,"o":"m 130 0 l 87 43 l 43 87 l 43 434 l 217 434 l 217 130 l 304 130 l 304 434 l 477 434 l 477 87 l 434 43 l 391 0 l 130 0 m 152 499 l 152 564 l 195 564 l 195 586 l 282 586 l 282 564 l 326 564 l 326 586 l 369 586 l 369 521 l 326 521 l 326 499 l 239 499 l 239 521 l 195 521 l 195 499 l 152 499 z "},"Ū":{"ha":521,"x_min":43,"x_max":477,"o":"m 130 0 l 87 43 l 43 87 l 43 564 l 217 564 l 217 130 l 304 130 l 304 564 l 477 564 l 477 87 l 434 43 l 391 0 l 130 0 m 130 608 l 130 694 l 391 694 l 391 608 l 130 608 z "},"ū":{"ha":521,"x_min":43,"x_max":477,"o":"m 130 0 l 87 43 l 43 87 l 43 434 l 217 434 l 217 130 l 304 130 l 304 434 l 477 434 l 477 87 l 434 43 l 391 0 l 130 0 m 130 477 l 130 564 l 391 564 l 391 477 l 130 477 z "},"Ŭ":{"ha":521,"x_min":43,"x_max":477,"o":"m 130 0 l 87 43 l 43 87 l 43 564 l 217 564 l 217 130 l 304 130 l 304 564 l 477 564 l 477 87 l 434 43 l 391 0 l 130 0 m 174 608 l 130 651 l 130 694 l 217 694 l 217 651 l 304 651 l 304 694 l 391 694 l 391 651 l 347 608 l 174 608 z "},"ŭ":{"ha":521,"x_min":43,"x_max":477,"o":"m 130 0 l 87 43 l 43 87 l 43 434 l 217 434 l 217 130 l 304 130 l 304 434 l 477 434 l 477 87 l 434 43 l 391 0 l 130 0 m 174 477 l 130 521 l 130 564 l 217 564 l 217 521 l 304 521 l 304 564 l 391 564 l 391 521 l 347 477 l 174 477 z "},"Ů":{"ha":521,"x_min":43,"x_max":477,"o":"m 130 0 l 87 43 l 43 87 l 43 564 l 217 564 l 217 130 l 304 130 l 304 564 l 477 564 l 477 87 l 434 43 l 391 0 l 130 0 m 304 651 l 304 694 l 217 694 l 217 651 l 304 651 m 217 608 l 174 651 l 174 694 l 217 738 l 304 738 l 347 694 l 347 651 l 304 608 l 217 608 z "},"ů":{"ha":521,"x_min":43,"x_max":477,"o":"m 130 0 l 87 43 l 43 87 l 43 434 l 217 434 l 217 130 l 304 130 l 304 434 l 477 434 l 477 87 l 434 43 l 391 0 l 130 0 m 304 521 l 304 564 l 217 564 l 217 521 l 304 521 m 217 477 l 174 521 l 174 564 l 217 608 l 304 608 l 347 564 l 347 521 l 304 477 l 217 477 z "},"Ű":{"ha":521,"x_min":43,"x_max":477,"o":"m 130 0 l 87 43 l 43 87 l 43 564 l 217 564 l 217 130 l 304 130 l 304 564 l 477 564 l 477 87 l 434 43 l 391 0 l 130 0 m 87 608 l 130 651 l 174 694 l 304 694 l 260 651 l 217 608 l 87 608 m 260 608 l 304 651 l 347 694 l 477 694 l 434 651 l 391 608 l 260 608 z "},"ű":{"ha":521,"x_min":43,"x_max":477,"o":"m 130 0 l 87 43 l 43 87 l 43 434 l 217 434 l 217 130 l 304 130 l 304 434 l 477 434 l 477 87 l 434 43 l 391 0 l 130 0 m 87 477 l 130 521 l 174 564 l 304 564 l 260 521 l 217 477 l 87 477 m 260 477 l 304 521 l 347 564 l 477 564 l 434 521 l 391 477 l 260 477 z "},"Ų":{"ha":521,"x_min":43,"x_max":477,"o":"m 304 -174 l 260 -130 l 260 -43 l 304 0 l 130 0 l 87 43 l 43 87 l 43 564 l 217 564 l 217 130 l 304 130 l 304 564 l 477 564 l 477 87 l 434 43 l 391 0 l 347 -43 l 347 -87 l 391 -87 l 391 -174 l 304 -174 z "},"ų":{"ha":521,"x_min":43,"x_max":477,"o":"m 304 -174 l 260 -130 l 260 -43 l 304 0 l 130 0 l 87 43 l 43 87 l 43 434 l 217 434 l 217 130 l 304 130 l 304 434 l 477 434 l 477 87 l 434 43 l 391 0 l 347 -43 l 347 -87 l 391 -87 l 391 -174 l 304 -174 z "},"Ŵ":{"ha":781,"x_min":43,"x_max":738,"o":"m 130 0 l 87 43 l 43 87 l 43 564 l 217 564 l 217 130 l 304 130 l 304 434 l 477 434 l 477 130 l 564 130 l 564 564 l 738 564 l 738 87 l 694 43 l 651 0 l 434 0 l 391 43 l 347 0 l 130 0 m 217 608 l 260 651 l 304 694 l 477 694 l 521 651 l 564 608 l 434 608 l 391 651 l 347 608 l 217 608 z "},"ŵ":{"ha":781,"x_min":43,"x_max":738,"o":"m 130 0 l 87 43 l 43 87 l 43 434 l 217 434 l 217 130 l 304 130 l 304 347 l 477 347 l 477 130 l 564 130 l 564 434 l 738 434 l 738 87 l 694 43 l 651 0 l 434 0 l 391 43 l 347 0 l 130 0 m 217 477 l 260 521 l 304 564 l 477 564 l 521 521 l 564 477 l 434 477 l 391 521 l 347 477 l 217 477 z "},"Ŷ":{"ha":521,"x_min":43,"x_max":477,"o":"m 130 0 l 87 43 l 43 87 l 43 174 l 217 174 l 217 130 l 304 130 l 304 217 l 130 217 l 87 260 l 43 304 l 43 564 l 217 564 l 217 347 l 304 347 l 304 564 l 477 564 l 477 87 l 434 43 l 391 0 l 130 0 m 87 608 l 130 651 l 174 694 l 347 694 l 391 651 l 434 608 l 304 608 l 260 651 l 217 608 l 87 608 z "},"ŷ":{"ha":521,"x_min":43,"x_max":477,"o":"m 304 -43 l 304 43 l 260 43 l 217 0 l 217 -43 l 304 -43 m 130 -174 l 87 -130 l 43 -87 l 43 0 l 87 43 l 130 43 l 87 87 l 43 130 l 43 434 l 217 434 l 217 174 l 304 174 l 304 434 l 477 434 l 477 -87 l 434 -130 l 391 -174 l 130 -174 m 87 477 l 130 521 l 174 564 l 347 564 l 391 521 l 434 477 l 304 477 l 260 521 l 217 477 l 87 477 z "},"Ÿ":{"ha":521,"x_min":43,"x_max":477,"o":"m 130 0 l 87 43 l 43 87 l 43 174 l 217 174 l 217 130 l 304 130 l 304 217 l 130 217 l 87 260 l 43 304 l 43 564 l 217 564 l 217 347 l 304 347 l 304 564 l 477 564 l 477 87 l 434 43 l 391 0 l 130 0 m 130 608 l 130 694 l 217 694 l 217 608 l 130 608 m 304 608 l 304 694 l 391 694 l 391 608 l 304 608 z "},"Ź":{"ha":521,"x_min":43,"x_max":477,"o":"m 43 0 l 43 260 l 87 304 l 130 347 l 304 347 l 304 434 l 174 434 l 174 391 l 43 391 l 43 564 l 477 564 l 477 304 l 434 260 l 391 217 l 217 217 l 217 130 l 347 130 l 347 174 l 477 174 l 477 0 l 43 0 m 174 608 l 217 651 l 260 694 l 391 694 l 347 651 l 304 608 l 174 608 z "},"ź":{"ha":477,"x_min":43,"x_max":434,"o":"m 43 0 l 43 174 l 87 217 l 130 260 l 260 260 l 260 304 l 43 304 l 43 434 l 434 434 l 434 260 l 391 217 l 347 174 l 217 174 l 217 130 l 434 130 l 434 0 l 43 0 m 130 477 l 174 521 l 217 564 l 347 564 l 304 521 l 260 477 l 130 477 z "},"Ż":{"ha":521,"x_min":43,"x_max":477,"o":"m 43 0 l 43 260 l 87 304 l 130 347 l 304 347 l 304 434 l 174 434 l 174 391 l 43 391 l 43 564 l 477 564 l 477 304 l 434 260 l 391 217 l 217 217 l 217 130 l 347 130 l 347 174 l 477 174 l 477 0 l 43 0 m 217 608 l 217 694 l 304 694 l 304 608 l 217 608 z "},"ż":{"ha":477,"x_min":43,"x_max":434,"o":"m 43 0 l 43 174 l 87 217 l 130 260 l 260 260 l 260 304 l 43 304 l 43 434 l 434 434 l 434 260 l 391 217 l 347 174 l 217 174 l 217 130 l 434 130 l 434 0 l 43 0 m 174 477 l 174 564 l 260 564 l 260 477 l 174 477 z "},"Ž":{"ha":521,"x_min":43,"x_max":477,"o":"m 43 0 l 43 260 l 87 304 l 130 347 l 304 347 l 304 434 l 174 434 l 174 391 l 43 391 l 43 564 l 477 564 l 477 304 l 434 260 l 391 217 l 217 217 l 217 130 l 347 130 l 347 174 l 477 174 l 477 0 l 43 0 m 174 608 l 130 651 l 87 694 l 217 694 l 260 651 l 304 694 l 434 694 l 391 651 l 347 608 l 174 608 z "},"ž":{"ha":477,"x_min":43,"x_max":434,"o":"m 43 0 l 43 174 l 87 217 l 130 260 l 260 260 l 260 304 l 43 304 l 43 434 l 434 434 l 434 260 l 391 217 l 347 174 l 217 174 l 217 130 l 434 130 l 434 0 l 43 0 m 130 477 l 87 521 l 43 564 l 174 564 l 217 521 l 260 564 l 391 564 l 347 521 l 304 477 l 130 477 z "},"ſ":{"ha":391,"x_min":43,"x_max":347,"o":"m 87 0 l 87 304 l 43 304 l 43 434 l 87 434 l 87 521 l 130 564 l 174 608 l 347 608 l 347 477 l 260 477 l 260 0 l 87 0 z "},"ƀ":{"ha":911,"x_min":43,"x_max":868,"o":"m 130 0 l 87 43 l 43 87 l 43 477 l 87 521 l 130 564 l 434 564 l 434 434 l 217 434 l 217 369 l 391 369 l 391 239 l 217 239 l 217 130 l 477 130 l 477 477 l 521 521 l 564 564 l 868 564 l 868 434 l 651 434 l 651 369 l 825 369 l 825 239 l 651 239 l 651 87 l 608 43 l 564 0 l 130 0 z "},"Ɓ":{"ha":1302,"x_min":43,"x_max":1259,"o":"m 868 369 l 868 434 l 651 434 l 651 369 l 868 369 m 130 0 l 87 43 l 43 87 l 43 477 l 87 521 l 130 564 l 434 564 l 434 434 l 217 434 l 217 369 l 391 369 l 391 239 l 217 239 l 217 130 l 477 130 l 477 477 l 521 521 l 564 564 l 1259 564 l 1259 434 l 1042 434 l 1042 369 l 1215 369 l 1215 239 l 1042 239 l 1042 0 l 868 0 l 868 239 l 651 239 l 651 87 l 608 43 l 564 0 l 130 0 z "},"Ƃ":{"ha":911,"x_min":43,"x_max":868,"o":"m 130 0 l 87 43 l 43 87 l 43 477 l 87 521 l 130 564 l 868 564 l 868 434 l 738 434 l 738 0 l 564 0 l 564 434 l 217 434 l 217 369 l 391 369 l 391 239 l 217 239 l 217 130 l 434 130 l 434 0 l 130 0 z "},"ƃ":{"ha":955,"x_min":43,"x_max":911,"o":"m 130 0 l 87 43 l 43 87 l 43 477 l 87 521 l 130 564 l 564 564 l 608 521 l 651 477 l 651 130 l 738 130 l 738 564 l 911 564 l 911 87 l 868 43 l 825 0 l 564 0 l 521 43 l 477 87 l 477 434 l 217 434 l 217 369 l 391 369 l 391 239 l 217 239 l 217 130 l 434 130 l 434 0 l 130 0 z "},"Ƅ":{"ha":955,"x_min":43,"x_max":911,"o":"m 130 0 l 87 43 l 43 87 l 43 477 l 87 521 l 130 564 l 564 564 l 608 521 l 651 477 l 651 347 l 738 347 l 738 564 l 911 564 l 911 87 l 868 43 l 825 0 l 564 0 l 521 43 l 477 87 l 477 174 l 651 174 l 651 130 l 738 130 l 738 217 l 564 217 l 521 260 l 477 304 l 477 434 l 217 434 l 217 369 l 391 369 l 391 239 l 217 239 l 217 130 l 434 130 l 434 0 l 130 0 z "},"ƅ":{"ha":825,"x_min":43,"x_max":781,"o":"m 391 369 l 391 434 l 217 434 l 217 369 l 391 369 m 43 0 l 43 477 l 87 521 l 130 564 l 781 564 l 781 434 l 564 434 l 564 369 l 738 369 l 738 239 l 564 239 l 564 0 l 391 0 l 391 239 l 217 239 l 217 0 l 43 0 z "},"Ɔ":{"ha":651,"x_min":43,"x_max":608,"o":"m 43 0 l 43 477 l 87 521 l 130 564 l 608 564 l 608 0 l 434 0 l 434 434 l 217 434 l 217 369 l 391 369 l 391 239 l 217 239 l 217 0 l 43 0 z "},"Ƈ":{"ha":911,"x_min":43,"x_max":868,"o":"m 43 0 l 43 477 l 87 521 l 130 564 l 521 564 l 564 521 l 608 477 l 608 347 l 694 347 l 694 564 l 868 564 l 868 347 l 825 304 l 868 260 l 868 0 l 694 0 l 694 217 l 608 217 l 608 0 l 434 0 l 434 434 l 217 434 l 217 369 l 391 369 l 391 239 l 217 239 l 217 0 l 43 0 z "},"ƈ":{"ha":868,"x_min":43,"x_max":825,"o":"m 43 0 l 43 477 l 87 521 l 130 564 l 825 564 l 825 434 l 694 434 l 694 0 l 521 0 l 521 434 l 217 434 l 217 369 l 391 369 l 391 239 l 217 239 l 217 0 l 43 0 z "},"Ɖ":{"ha":955,"x_min":43,"x_max":911,"o":"m 43 0 l 43 477 l 87 521 l 130 564 l 564 564 l 608 521 l 651 477 l 651 130 l 738 130 l 738 564 l 911 564 l 911 87 l 868 43 l 825 0 l 564 0 l 521 43 l 477 87 l 477 434 l 217 434 l 217 369 l 391 369 l 391 239 l 217 239 l 217 0 l 43 0 z "},"Ɗ":{"ha":955,"x_min":43,"x_max":911,"o":"m 43 0 l 43 477 l 87 521 l 130 564 l 564 564 l 608 521 l 651 477 l 651 347 l 738 347 l 738 564 l 911 564 l 911 87 l 868 43 l 825 0 l 564 0 l 521 43 l 477 87 l 477 174 l 651 174 l 651 130 l 738 130 l 738 217 l 564 217 l 521 260 l 477 304 l 477 434 l 217 434 l 217 369 l 391 369 l 391 239 l 217 239 l 217 0 l 43 0 z "},"Ƌ":{"ha":868,"x_min":43,"x_max":825,"o":"m 651 304 l 651 434 l 564 434 l 564 304 l 651 304 m 130 0 l 87 43 l 43 87 l 43 564 l 217 564 l 217 130 l 391 130 l 391 477 l 434 521 l 477 564 l 738 564 l 781 521 l 825 477 l 825 0 l 651 0 l 651 174 l 564 174 l 564 87 l 521 43 l 477 0 l 130 0 z "},"ƌ":{"ha":825,"x_min":43,"x_max":781,"o":"m 130 0 l 87 43 l 43 87 l 43 564 l 217 564 l 217 130 l 391 130 l 391 477 l 434 521 l 477 564 l 781 564 l 781 434 l 564 434 l 564 369 l 738 369 l 738 239 l 564 239 l 564 0 l 130 0 z "},"ƍ":{"ha":955,"x_min":43,"x_max":911,"o":"m 174 0 l 174 434 l 43 434 l 43 564 l 564 564 l 608 521 l 651 477 l 651 347 l 738 347 l 738 564 l 911 564 l 911 0 l 738 0 l 738 217 l 651 217 l 651 0 l 477 0 l 477 434 l 347 434 l 347 0 l 174 0 z "},"Ǝ":{"ha":694,"x_min":43,"x_max":651,"o":"m 174 0 l 174 434 l 43 434 l 43 564 l 651 564 l 651 0 l 477 0 l 477 434 l 347 434 l 347 0 l 174 0 z "},"Ə":{"ha":868,"x_min":43,"x_max":825,"o":"m 174 0 l 174 434 l 43 434 l 43 564 l 825 564 l 825 434 l 694 434 l 694 0 l 521 0 l 521 434 l 347 434 l 347 0 l 174 0 z "},"Ɛ":{"ha":955,"x_min":43,"x_max":911,"o":"m 174 0 l 174 434 l 43 434 l 43 564 l 564 564 l 608 521 l 651 477 l 651 130 l 738 130 l 738 564 l 911 564 l 911 87 l 868 43 l 825 0 l 564 0 l 521 43 l 477 87 l 477 434 l 347 434 l 347 0 l 174 0 z "},"Ƒ":{"ha":955,"x_min":43,"x_max":911,"o":"m 174 0 l 174 434 l 43 434 l 43 564 l 564 564 l 608 521 l 651 477 l 651 347 l 738 347 l 738 564 l 911 564 l 911 87 l 868 43 l 825 0 l 564 0 l 521 43 l 477 87 l 477 174 l 651 174 l 651 130 l 738 130 l 738 217 l 564 217 l 521 260 l 477 304 l 477 434 l 347 434 l 347 0 l 174 0 z "},"ƒ":{"ha":955,"x_min":43,"x_max":911,"o":"m 130 0 l 87 43 l 43 87 l 43 347 l 87 391 l 130 434 l 434 434 l 434 260 l 260 260 l 260 304 l 217 304 l 217 130 l 477 130 l 477 564 l 651 564 l 651 434 l 825 434 l 868 391 l 911 347 l 911 0 l 738 0 l 738 304 l 651 304 l 651 87 l 608 43 l 564 0 l 130 0 z "},"Ɠ":{"ha":955,"x_min":43,"x_max":911,"o":"m 694 260 l 738 304 l 651 304 l 651 260 l 694 260 m 130 0 l 87 43 l 43 87 l 43 347 l 87 391 l 130 434 l 434 434 l 434 260 l 260 260 l 260 304 l 217 304 l 217 130 l 477 130 l 477 608 l 651 608 l 651 434 l 868 434 l 911 391 l 911 304 l 868 260 l 911 217 l 911 0 l 738 0 l 738 130 l 651 130 l 651 87 l 608 43 l 564 0 l 130 0 z "},"Ɣ":{"ha":781,"x_min":43,"x_max":738,"o":"m 130 0 l 87 43 l 43 87 l 43 347 l 87 391 l 130 434 l 260 434 l 260 477 l 304 521 l 347 564 l 651 564 l 651 434 l 738 434 l 738 304 l 651 304 l 651 130 l 738 130 l 738 0 l 564 0 l 521 43 l 477 87 l 477 477 l 434 477 l 434 260 l 260 260 l 260 304 l 217 304 l 217 130 l 434 130 l 434 0 l 130 0 z "},"ƕ":{"ha":651,"x_min":43,"x_max":608,"o":"m 43 0 l 43 521 l 87 564 l 130 608 l 304 608 l 304 477 l 217 477 l 217 434 l 347 434 l 347 521 l 391 564 l 434 608 l 608 608 l 608 477 l 521 477 l 521 434 l 608 434 l 608 304 l 521 304 l 521 0 l 347 0 l 347 304 l 217 304 l 217 0 l 43 0 z "},"Ɩ":{"ha":868,"x_min":43,"x_max":825,"o":"m 651 477 l 651 564 l 825 564 l 825 477 l 651 477 m 43 0 l 43 521 l 87 564 l 130 608 l 304 608 l 304 477 l 217 477 l 217 434 l 347 434 l 347 521 l 391 564 l 434 608 l 608 608 l 608 477 l 521 477 l 521 434 l 825 434 l 825 0 l 651 0 l 651 304 l 521 304 l 521 0 l 347 0 l 347 304 l 217 304 l 217 0 l 43 0 z "},"Ɨ":{"ha":825,"x_min":43,"x_max":781,"o":"m 564 260 l 608 304 l 521 304 l 521 260 l 564 260 m 43 0 l 43 521 l 87 564 l 130 608 l 521 608 l 521 434 l 738 434 l 781 391 l 781 304 l 738 260 l 781 217 l 781 0 l 608 0 l 608 130 l 521 130 l 521 0 l 347 0 l 347 477 l 217 477 l 217 434 l 304 434 l 304 304 l 217 304 l 217 0 l 43 0 z "},"Ƙ":{"ha":651,"x_min":43,"x_max":608,"o":"m 43 0 l 43 347 l 87 391 l 130 434 l 347 434 l 347 564 l 521 564 l 521 434 l 608 434 l 608 304 l 521 304 l 521 130 l 608 130 l 608 0 l 434 0 l 391 43 l 347 87 l 347 304 l 217 304 l 217 0 l 43 0 z "},"ƙ":{"ha":781,"x_min":43,"x_max":738,"o":"m 43 0 l 43 130 l 260 130 l 260 174 l 130 174 l 87 217 l 43 260 l 43 347 l 87 391 l 130 434 l 260 434 l 260 477 l 304 521 l 347 564 l 651 564 l 651 434 l 738 434 l 738 304 l 651 304 l 651 130 l 738 130 l 738 0 l 564 0 l 521 43 l 477 87 l 477 477 l 434 477 l 434 304 l 217 304 l 217 260 l 347 260 l 391 217 l 434 174 l 434 87 l 391 43 l 347 0 l 43 0 z "},"ƚ":{"ha":564,"x_min":43,"x_max":521,"o":"m 130 0 l 87 43 l 43 87 l 43 564 l 217 564 l 217 434 l 521 434 l 521 0 l 347 0 l 347 304 l 217 304 l 217 130 l 304 130 l 304 0 l 130 0 m 347 477 l 347 564 l 521 564 l 521 477 l 347 477 z "},"ƛ":{"ha":825,"x_min":43,"x_max":781,"o":"m 608 -43 l 608 43 l 564 43 l 521 0 l 521 -43 l 608 -43 m 434 -174 l 391 -130 l 347 -87 l 347 0 l 391 43 l 434 43 l 391 87 l 347 130 l 347 304 l 217 304 l 217 130 l 304 130 l 304 0 l 130 0 l 87 43 l 43 87 l 43 564 l 217 564 l 217 434 l 434 434 l 477 391 l 521 347 l 521 174 l 608 174 l 608 434 l 781 434 l 781 -87 l 738 -130 l 694 -174 l 434 -174 z "},"Ɯ":{"ha":803,"x_min":43,"x_max":760,"o":"m 564 130 l 564 174 l 477 174 l 477 130 l 564 130 m 43 0 l 43 521 l 87 564 l 130 608 l 304 608 l 304 477 l 217 477 l 217 434 l 651 434 l 694 391 l 738 347 l 738 130 l 760 130 l 760 0 l 564 0 l 564 43 l 521 0 l 391 0 l 347 43 l 304 87 l 304 174 l 347 217 l 391 260 l 564 260 l 564 304 l 217 304 l 217 0 l 43 0 z "},"Ɲ":{"ha":955,"x_min":43,"x_max":911,"o":"m 43 0 l 43 130 l 260 130 l 260 174 l 130 174 l 87 217 l 43 260 l 43 347 l 87 391 l 130 434 l 260 434 l 260 477 l 304 521 l 347 564 l 651 564 l 651 434 l 825 434 l 868 391 l 911 347 l 911 0 l 738 0 l 738 304 l 651 304 l 651 0 l 477 0 l 477 477 l 434 477 l 434 304 l 217 304 l 217 260 l 347 260 l 391 217 l 434 174 l 434 87 l 391 43 l 347 0 l 43 0 z "},"ƞ":{"ha":846,"x_min":43,"x_max":803,"o":"m 608 130 l 608 174 l 521 174 l 521 130 l 608 130 m 130 0 l 87 43 l 43 87 l 43 564 l 217 564 l 217 434 l 694 434 l 738 391 l 781 347 l 781 130 l 803 130 l 803 0 l 608 0 l 608 43 l 564 0 l 434 0 l 391 43 l 347 87 l 347 174 l 391 217 l 434 260 l 608 260 l 608 304 l 217 304 l 217 130 l 304 130 l 304 0 l 130 0 z "},"Ɵ":{"ha":564,"x_min":43,"x_max":521,"o":"m 43 477 l 43 564 l 217 564 l 217 477 l 43 477 m 43 0 l 43 434 l 260 434 l 260 564 l 434 564 l 434 434 l 521 434 l 521 304 l 434 304 l 434 130 l 521 130 l 521 0 l 347 0 l 304 43 l 260 87 l 260 304 l 217 304 l 217 0 l 43 0 z "},"—":{"ha":564,"x_min":43,"x_max":521,"o":"m 43 217 l 43 347 l 521 347 l 521 217 l 43 217 z "},"‘":{"ha":217,"x_min":43,"x_max":174,"o":"m 43 347 l 43 521 l 87 564 l 130 564 l 130 477 l 174 477 l 174 347 l 43 347 z "},"’":{"ha":217,"x_min":43,"x_max":174,"o":"m 87 347 l 87 434 l 43 434 l 43 564 l 174 564 l 174 391 l 130 347 l 87 347 z "},"‚":{"ha":217,"x_min":43,"x_max":174,"o":"m 87 -87 l 87 0 l 43 0 l 43 130 l 174 130 l 174 -43 q 160 -73 174 -61 q 130 -87 148 -87 l 87 -87 z "},"‛":{"ha":217,"x_min":43,"x_max":174,"o":"m 87 347 q 56 359 68 347 q 43 391 43 372 l 43 564 l 174 564 l 174 434 l 130 434 l 130 347 l 87 347 z "},"“":{"ha":391,"x_min":43,"x_max":347,"o":"m 43 347 l 43 521 l 87 564 l 130 564 l 130 477 l 174 477 l 174 347 l 43 347 m 217 347 l 217 521 l 260 564 l 304 564 l 304 477 l 347 477 l 347 347 l 217 347 z "},"”":{"ha":391,"x_min":43,"x_max":347,"o":"m 87 347 l 87 434 l 43 434 l 43 564 l 174 564 l 174 391 l 130 347 l 87 347 m 260 347 l 260 434 l 217 434 l 217 564 l 347 564 l 347 391 l 304 347 l 260 347 z "},"„":{"ha":391,"x_min":43,"x_max":347,"o":"m 87 -87 l 87 0 l 43 0 l 43 130 l 174 130 l 174 -43 q 160 -73 174 -61 q 130 -87 148 -87 l 87 -87 m 260 -87 l 260 0 l 217 0 l 217 130 l 347 130 l 347 -43 q 334 -73 347 -61 q 304 -87 321 -87 l 260 -87 z "},"†":{"ha":477,"x_min":43,"x_max":434,"o":"m 174 -43 l 174 304 l 43 304 l 43 434 l 174 434 l 174 564 l 304 564 l 304 434 l 434 434 l 434 304 l 304 304 l 304 -43 l 174 -43 z "},"…":{"ha":521,"x_min":43,"x_max":477,"o":"m 43 0 l 43 87 l 130 87 l 130 0 l 43 0 m 217 0 l 217 87 l 304 87 l 304 0 l 217 0 m 391 0 l 391 87 l 477 87 l 477 0 l 391 0 z "},"‹":{"ha":304,"x_min":43,"x_max":260,"o":"m 217 43 l 174 87 l 130 130 l 87 174 l 43 217 l 43 347 l 87 391 l 130 434 l 174 477 l 217 521 l 260 521 l 260 347 l 217 304 l 217 260 l 260 217 l 260 43 l 217 43 z "},"›":{"ha":304,"x_min":43,"x_max":260,"o":"m 43 43 l 43 217 l 87 260 l 87 304 l 43 347 l 43 521 l 87 521 l 130 477 l 174 434 l 217 391 l 260 347 l 260 217 l 217 174 l 174 130 l 130 87 l 87 43 l 43 43 z "},"€":{"ha":521,"x_min":43,"x_max":477,"o":"m 174 43 l 130 87 l 87 130 l 87 217 l 43 217 l 43 260 l 87 260 l 87 304 l 43 304 l 43 347 l 87 347 l 87 434 l 130 477 l 174 521 l 477 521 l 477 391 l 260 391 l 260 347 l 434 347 l 434 304 l 260 304 l 260 260 l 391 260 l 391 217 l 260 217 l 260 174 l 477 174 l 477 43 l 174 43 z "},"™":{"ha":477,"x_min":43,"x_max":434,"o":"m 87 434 l 87 521 l 43 521 l 43 564 l 174 564 l 174 521 l 130 521 l 130 434 l 87 434 m 217 434 l 217 564 l 391 564 l 434 521 l 434 434 l 391 434 l 391 521 l 347 521 l 347 434 l 304 434 l 304 521 l 260 521 l 260 434 l 217 434 z "},"ﬁ":{"ha":564,"x_min":43,"x_max":521,"o":"m 347 477 l 347 564 l 521 564 l 521 477 l 347 477 m 43 0 l 43 521 l 87 564 l 130 608 l 304 608 l 304 477 l 217 477 l 217 434 l 521 434 l 521 0 l 347 0 l 347 304 l 217 304 l 217 0 l 43 0 z "},"ﬂ":{"ha":608,"x_min":43,"x_max":564,"o":"m 43 0 l 43 521 l 87 564 l 130 608 l 521 608 l 521 130 l 564 130 l 564 0 l 434 0 l 391 43 l 347 87 l 347 477 l 217 477 l 217 434 l 304 434 l 304 304 l 217 304 l 217 0 l 43 0 z "}}}
